<svg width="117" height="23" viewBox="0 0 117 23" fill="none" xmlns="http://www.w3.org/2000/svg">
<path fill-rule="evenodd" clip-rule="evenodd" d="M38.0476 13.5739C38.1002 13.3274 38.0731 13.1296 37.9643 12.9809C37.8559 12.8318 37.6827 12.7572 37.4445 12.7572H32.2123L31.8526 14.4283H37.0853C37.6046 14.4283 37.9252 14.1432 38.0476 13.5739ZM38.4871 10.1053C38.5362 9.87551 38.5099 9.69042 38.4082 9.55006C38.3064 9.4097 38.145 9.33953 37.9239 9.33953H32.9465L32.6176 10.8703H37.595C38.0801 10.8703 38.3774 10.6155 38.4871 10.1053ZM30.56 7.26137H38.92C40.9784 7.26137 41.8223 8.12413 41.4517 9.85007C41.3438 10.3514 41.1455 10.7593 40.8565 11.0738C40.5679 11.3887 40.1701 11.6352 39.6635 11.8137C40.231 11.9072 40.61 12.1326 40.8012 12.4892C40.9925 12.8467 41.017 13.3568 40.8745 14.02C40.6815 14.9126 40.306 15.5542 39.7455 15.9455C39.1849 16.3359 38.3902 16.5319 37.3603 16.5319H28.5674L30.56 7.26137ZM43.6755 7.26137H46.5089L44.5163 16.5319H41.6828L43.6755 7.26137ZM56.1575 9.97113C56.1049 9.822 56.0005 9.71235 55.8461 9.63954C55.6913 9.56717 55.4799 9.52111 55.2123 9.49918C54.896 9.47627 54.579 9.46559 54.2618 9.46716H52.6162C52.1565 9.46716 51.7753 9.48909 51.4727 9.5312C51.17 9.57418 50.92 9.65928 50.7227 9.78647C50.5253 9.91367 50.3687 10.0992 50.2533 10.3413C50.1367 10.5834 50.0371 10.9001 49.9529 11.2914L49.6766 12.5791C49.5976 12.9445 49.5744 13.2397 49.6064 13.4651C49.6393 13.6901 49.7336 13.8669 49.8889 13.9941C50.0437 14.1213 50.2617 14.209 50.5402 14.2555C50.8196 14.3024 51.1674 14.3257 51.5841 14.3257H53.2179C53.5842 14.3257 53.9066 14.3108 54.1851 14.2809C54.4636 14.2516 54.6983 14.2002 54.8877 14.1283C55.0777 14.0559 55.229 13.9559 55.3413 13.8283C55.4544 13.7011 55.5316 13.5388 55.5737 13.3441C55.5926 13.2515 55.6043 13.1577 55.6088 13.0634H52.2775L52.6802 11.1887H58.9594L58.3041 14.2371C58.2032 14.7042 58.0322 15.0924 57.7909 15.4038C57.5506 15.7135 57.2317 15.96 56.8347 16.1429C56.4382 16.3258 55.9593 16.4552 55.3987 16.5319C54.8373 16.6082 54.1868 16.646 53.4469 16.646H50.2946C49.9288 16.646 49.5897 16.6402 49.277 16.6275C48.9656 16.6144 48.6761 16.585 48.4099 16.5381C48.164 16.4977 47.9242 16.427 47.6958 16.3275C47.4873 16.2347 47.2945 16.1102 47.1243 15.9582C46.8063 15.6666 46.5977 15.2751 46.533 14.8485C46.4642 14.4152 46.4979 13.8792 46.6357 13.2419L47.1782 10.7176C47.3287 10.0203 47.5313 9.44216 47.7879 8.98337C48.0436 8.52458 48.3774 8.15878 48.7888 7.88684C49.2011 7.6149 49.6946 7.42366 50.2713 7.31313C50.8485 7.2026 51.5323 7.14734 52.324 7.14734H55.4886C56.3053 7.14734 56.9852 7.18155 57.5282 7.24953C58.0703 7.31752 58.4835 7.48331 58.7673 7.74692C59.016 7.97675 59.1664 8.28291 59.2208 8.66538C59.2748 9.04785 59.2414 9.5198 59.1208 10.0808L59.066 10.3361C59.0463 10.4262 59.0229 10.5154 58.9958 10.6036H56.1492C56.2106 10.3229 56.2106 10.1211 56.158 9.97288L56.1575 9.97113ZM63.171 11.9155H67.3444C67.7444 11.9155 68.0352 11.8199 68.2172 11.6286C68.3979 11.4374 68.5383 11.1124 68.637 10.6532C68.7172 10.2786 68.6975 10.004 68.5773 9.83033C68.4571 9.65621 68.2141 9.56892 67.8483 9.56892H63.6749L63.171 11.9155ZM69.8467 7.33769C70.2361 7.38901 70.5629 7.49121 70.8278 7.64385C71.273 7.90701 71.5401 8.28773 71.6292 8.78512C71.7178 9.28251 71.6757 9.93429 71.502 10.7427C71.3686 11.3633 71.2055 11.8944 71.0125 12.3366C70.8195 12.7787 70.5853 13.1392 70.3076 13.4199C70.0305 13.7008 69.6899 13.9109 69.3146 14.0327C68.9295 14.1599 68.4821 14.2239 67.9716 14.2239H62.6753L62.1797 16.5319H59.3331L61.3257 7.26137H68.447C68.9909 7.26137 69.458 7.28681 69.8471 7.33769H69.8467ZM74.9916 16.6275C74.6407 16.6144 74.3205 16.5872 74.0323 16.5442C73.7676 16.5082 73.5078 16.442 73.2582 16.3468C73.0433 16.2651 72.8443 16.1464 72.6704 15.9959C72.3476 15.7152 72.1617 15.3542 72.1121 14.9125C72.0625 14.4704 72.1099 13.9134 72.2542 13.2414L72.7972 10.7172C72.9525 9.99438 73.1525 9.39918 73.3981 8.93205C73.6378 8.46958 73.9948 8.07815 74.4332 7.79692C74.8762 7.51621 75.3973 7.33769 75.9969 7.26181C76.596 7.18462 77.3215 7.14646 78.1724 7.14646H81.5028C82.3537 7.14646 83.0665 7.18462 83.6415 7.26137C84.2161 7.33769 84.6608 7.51577 84.9749 7.79648C85.2731 8.06842 85.4508 8.43247 85.5056 8.88731C85.5617 9.34216 85.5153 9.91367 85.367 10.6023L84.8108 13.191C84.663 13.8796 84.4635 14.4511 84.2126 14.906C83.9747 15.3467 83.6311 15.7214 83.2125 15.9964C82.7673 16.2858 82.2414 16.4666 81.6348 16.5385C81.0278 16.6109 80.3032 16.6468 79.4611 16.6468H76.143C75.7263 16.6468 75.3425 16.6407 74.9925 16.628L74.9916 16.6275ZM80.3681 14.2621C80.6927 14.2195 80.9681 14.1349 81.1953 14.0068C81.424 13.8787 81.6141 13.6917 81.7458 13.4651C81.8862 13.2313 81.9958 12.9274 82.0765 12.5528L82.3585 11.24C82.4392 10.8659 82.4594 10.5619 82.4208 10.3277C82.3814 10.0944 82.2752 9.91367 82.1028 9.78603C81.93 9.65884 81.6905 9.57375 81.3853 9.53164C81.0795 9.48865 80.701 9.46716 80.2501 9.46716H78.4378C77.9786 9.46716 77.5869 9.48909 77.2623 9.5312C76.939 9.57418 76.6627 9.66103 76.4346 9.79305C76.2066 9.92464 76.0241 10.1097 75.8877 10.3475C75.7517 10.5861 75.6412 10.9001 75.5574 11.2918L75.2811 12.5796C75.2021 12.9449 75.1846 13.2419 75.2284 13.4717C75.2732 13.7015 75.382 13.8796 75.5543 14.0068C75.7267 14.1349 75.9658 14.22 76.2715 14.2625C76.5776 14.3051 76.9557 14.3261 77.4075 14.3261H79.2058C79.6576 14.3261 80.0449 14.3046 80.3681 14.2621ZM87.4719 7.26181H90.3053L88.311 16.5315H85.4775L87.4706 7.26094L87.4719 7.26181ZM94.1871 9.78603L92.7366 16.5319H89.9031L91.8953 7.26137H96.0942L100.16 14.0581L101.621 7.26137H104.441L102.448 16.5319H98.3004L94.1862 9.78603H94.1871ZM17.3714 13.5147C17.488 12.6221 17.3516 12.0269 16.9621 11.7313C16.7735 11.5857 16.4683 11.4743 16.0428 11.3979C16.5687 11.2514 16.9582 11.0115 17.2143 10.6769C17.4701 10.3426 17.6587 9.81893 17.7828 9.10662C17.8854 8.50923 17.9021 8.03904 17.8341 7.69736C17.7648 7.35655 17.5986 7.09382 17.3336 6.90873C17.0617 6.7153 16.6038 6.59863 15.9617 6.56047C15.6779 6.54029 14.7774 6.52889 13.2611 6.52363H6.12488L4.40683 16.4407H11.5641C12.5115 16.4354 13.244 16.4275 13.7651 16.417C13.7419 16.0305 13.798 15.6433 13.93 15.2792C14.062 14.9152 14.2671 14.582 14.5327 14.3002C14.7983 14.0184 15.1187 13.7939 15.4743 13.6406C15.8299 13.4872 16.2131 13.4083 16.6003 13.4085C16.8678 13.4085 17.1266 13.4458 17.3714 13.5147ZM109.032 9.5312H105.152L105.641 7.26181H116.233L115.745 9.53164H111.865L110.361 16.5328H107.528L109.032 9.53252L109.032 9.5312ZM19.4035 4.52487C15.0647 -0.711304 8.732 0.0369711 8.732 0.0369711C8.732 0.0369711 3.19187 2.25022 0.841338 8.60266C-1.6706 15.3968 2.24271 20.4812 2.24271 20.4812C2.24271 20.4812 8.26399 24.291 14.8502 22.5396C21.2777 20.8312 23.2343 15.5003 23.2343 15.5003C23.2343 15.5003 23.6672 9.67331 19.4035 4.52487ZM13.5541 14.0296C13.3888 14.0397 12.8629 14.0458 11.9769 14.0507H7.70476L7.98679 12.4234H12.2598C13.4379 12.4278 14.0769 12.4453 14.1787 12.4734C14.4656 12.5467 14.5743 12.7892 14.502 13.2015C14.4327 13.5998 14.259 13.8498 13.98 13.9507C13.8427 13.9974 13.6994 14.024 13.5546 14.0296H13.5541ZM8.60655 8.85354H12.8651C13.8199 8.85881 14.3506 8.87547 14.4581 8.90442C14.7314 8.98249 14.834 9.21891 14.7664 9.61278C14.6989 9.99657 14.5384 10.2347 14.2853 10.3277C14.0923 10.4001 13.5269 10.4374 12.59 10.4374H8.3311L8.60655 8.85354ZM1.66418 11.994C1.66418 6.66925 5.98277 2.35329 11.3106 2.35329C16.6384 2.35329 20.9575 6.66925 20.9575 11.994C20.9575 17.3188 16.6384 21.6356 11.3106 21.6356C5.98277 21.6356 1.66418 17.3192 1.66418 11.994ZM16.5994 14.2858C16.3417 14.2855 16.0864 14.3361 15.8483 14.4346C15.6101 14.5331 15.3937 14.6776 15.2115 14.8599C15.0292 15.0421 14.8846 15.2585 14.7861 15.4966C14.6875 15.7347 14.6369 15.99 14.637 16.2477C14.6369 16.5054 14.6876 16.7606 14.7862 16.9987C14.8848 17.2367 15.0294 17.4531 15.2116 17.6352C15.3939 17.8174 15.6102 17.9619 15.8484 18.0603C16.0865 18.1588 16.3417 18.2094 16.5994 18.2092C16.857 18.2092 17.1121 18.1584 17.3501 18.0598C17.5881 17.9613 17.8044 17.8168 17.9865 17.6346C18.1687 17.4524 18.3132 17.2362 18.4118 16.9982C18.5104 16.7602 18.5611 16.5051 18.5611 16.2475C18.5611 15.9899 18.5104 15.7348 18.4118 15.4968C18.3132 15.2588 18.1687 15.0425 17.9865 14.8603C17.8044 14.6782 17.5881 14.5337 17.3501 14.4351C17.1121 14.3365 16.857 14.2858 16.5994 14.2858Z" fill="#1D1D26"/>
</svg>
