<svg width="10" height="10" viewBox="0 0 10 10" fill="none" xmlns="http://www.w3.org/2000/svg">
<path d="M0.908758 1.135C0.868049 1.13446 0.827704 1.14273 0.790487 1.15923C0.753271 1.17574 0.720061 1.20009 0.693133 1.23063C0.666503 1.26083 0.646915 1.29657 0.635782 1.33526C0.624649 1.37396 0.62225 1.41464 0.628758 1.45438L1.81876 8.5525C1.84938 8.73188 2.00626 8.86375 2.19126 8.865H7.90063C7.96731 8.8663 8.03225 8.8437 8.08372 8.80128C8.13518 8.75887 8.16978 8.69945 8.18126 8.63375L9.37126 1.45625C9.37802 1.41666 9.37592 1.37606 9.36511 1.33737C9.3543 1.29868 9.33506 1.26287 9.30876 1.2325C9.28221 1.20187 9.24938 1.1773 9.2125 1.16048C9.17562 1.14366 9.13555 1.13497 9.09501 1.135H0.908758ZM5.92001 6.265H4.09813L3.60438 3.73375H6.36188L5.92001 6.265Z" fill="#808080"/>
</svg>
