<svg width="10" height="10" viewBox="0 0 10 10" fill="none" xmlns="http://www.w3.org/2000/svg"><g clip-path="url(#clip0_14_112)"><path fill-rule="evenodd" clip-rule="evenodd" d="M8.24075 9.16667H1.75927C1.24789 9.16667 0.833344 8.75212 0.833344 8.24074V1.75926C0.833344 1.24789 1.24789 0.833336 1.75927 0.833336H8.24075C8.75213 0.833336 9.16668 1.24789 9.16668 1.75926V8.24074C9.16668 8.75212 8.75213 9.16667 8.24075 9.16667ZM6.71811 7.91667H7.91668V5.45447C7.91668 4.41268 7.32613 3.90897 6.50126 3.90897C5.67601 3.90897 5.3287 4.55161 5.3287 4.55161V4.02778H4.17362V7.91667H5.3287V5.87524C5.3287 5.32825 5.5805 5.00275 6.06243 5.00275C6.50544 5.00275 6.71811 5.31554 6.71811 5.87524V7.91667ZM2.08334 2.80095C2.08334 3.19724 2.40216 3.51856 2.79561 3.51856C3.18906 3.51856 3.50769 3.19724 3.50769 2.80095C3.50769 2.40466 3.18906 2.08334 2.79561 2.08334C2.40216 2.08334 2.08334 2.40466 2.08334 2.80095ZM3.40363 7.91667H2.19917V4.02778H3.40363V7.91667Z" fill="#8E8E92"/></g><defs><clipPath id="clip0_14_112"><rect width="10" height="10" fill="white"/></clipPath></defs></svg>