<svg width="108" height="23" viewBox="0 0 108 23" fill="none" xmlns="http://www.w3.org/2000/svg">
<path d="M0 5.45621V10.9124H5.4562H10.9124V5.45621V7.36117e-06H5.4562H0V5.45621Z" fill="#1D1D26"/>
<path d="M12.0624 0.0587665C12.0288 0.083949 12.0037 2.54344 12.0037 5.51497V10.9124H17.4599H22.9161V5.45621V7.36117e-06H17.5186C14.5471 7.36117e-06 12.0876 0.0251898 12.0624 0.0587665Z" fill="#1D1D26"/>
<path d="M99.6387 3.69342C98.7574 3.88649 97.8256 4.54123 97.4311 5.26313C97.0869 5.90109 96.9526 6.55583 96.9526 7.57153V8.4697L96.1384 8.49488L95.3157 8.52007L95.2906 9.46021L95.2654 10.4088H96.1132H96.9526V14.396V18.3832H98.1278H99.303V14.396V10.4088H101.024H102.745V12.9438C102.753 15.9741 102.812 16.5449 103.181 17.292C103.492 17.8963 103.979 18.2993 104.616 18.4755C105.154 18.6182 106.32 18.5931 106.925 18.4252L107.445 18.2741V17.3339V16.3938L106.967 16.5533C106.195 16.8135 105.59 16.654 105.288 16.0916C105.154 15.8566 105.137 15.5124 105.112 13.1117L105.087 10.4088H106.262H107.445V9.44342V8.47809H106.27H105.095V7.04269V5.60729L104.868 5.66605C104.734 5.69123 104.205 5.85072 103.693 6.01021L102.745 6.30401V7.41204V8.52007L101.015 8.49488L99.2862 8.4697L99.3114 7.48758C99.3449 6.41313 99.4541 6.10255 99.9074 5.76678C100.218 5.54014 100.94 5.48138 101.435 5.64926L101.821 5.78357V4.78466C101.821 3.93685 101.804 3.78576 101.679 3.74379C101.427 3.64306 100.025 3.61788 99.6387 3.69342Z" fill="#1D1D26"/>
<path d="M47.3766 4.52445C46.9401 4.79306 46.7302 5.1624 46.7302 5.67445C46.7302 6.49707 47.3514 7.02591 48.2496 6.95036C49.0134 6.88321 49.4835 6.39634 49.4835 5.66605C49.4835 5.1624 49.3156 4.86861 48.8539 4.54963C48.493 4.3062 47.7543 4.28941 47.3766 4.52445Z" fill="#1D1D26"/>
<path d="M29.7993 11.5V18.3832H30.9325H32.0657L32.049 13.0949C32.0322 10.1821 32.049 7.80657 32.0741 7.80657C32.0993 7.80657 33.073 10.1905 34.2482 13.0949L36.3803 18.3916L37.2198 18.3664L38.0592 18.3412L40.1325 13.1117C41.2741 10.2325 42.2311 7.85693 42.2562 7.83175C42.2814 7.79817 42.3066 10.1653 42.3066 13.0781V18.3832H43.4818H44.657V11.5V4.61679H43.0369H41.4168L39.4946 9.3343C38.4369 11.9365 37.4968 14.2281 37.4128 14.4296L37.2449 14.8073L36.5146 12.9606C36.1117 11.9533 35.2052 9.66168 34.5 7.86533L33.2157 4.61679H31.5033H29.7993V11.5Z" fill="#1D1D26"/>
<path d="M54.7299 8.43613C53.0259 8.82226 51.6912 10.0394 51.1204 11.7518C50.8602 12.5073 50.7931 14.1609 50.9861 14.9752C51.2883 16.2427 52.2033 17.4682 53.2609 18.0223C54.5704 18.7022 56.5263 18.7693 57.9785 18.1985L58.4653 18.0055L58.5073 16.931C58.5325 16.3434 58.5409 15.865 58.5325 15.865C58.5241 15.865 58.2723 15.9993 57.9701 16.1588C56.5682 16.9394 54.9985 16.8051 54.0836 15.8398C53.3953 15.1179 53.1266 14.077 53.3029 12.8515C53.4708 11.6847 54.1423 10.7781 55.1161 10.4172C56.031 10.073 57.3321 10.2325 58.1715 10.8033C58.331 10.904 58.4821 10.9963 58.5073 10.9963C58.5325 10.9963 58.5409 10.4927 58.5241 9.87153L58.4989 8.74671L57.9365 8.56204C57.2062 8.31861 55.5526 8.25146 54.7299 8.43613Z" fill="#1D1D26"/>
<path d="M64.7189 8.40259C63.8963 8.5201 63.2499 8.99857 62.8386 9.79602L62.6288 10.1989L62.6204 9.33434V8.46974L61.4704 8.49492L60.312 8.5201L60.2868 13.4475L60.27 18.3832H61.4368H62.612L62.6372 15.3362L62.6624 12.2975L62.8974 11.7938C63.2667 11.0132 63.6948 10.6186 64.3328 10.5011C64.7609 10.4256 65.4576 10.5179 65.827 10.711L66.062 10.8369V9.70368C66.062 8.88945 66.0284 8.55368 65.9613 8.50332C65.785 8.40259 65.1218 8.34383 64.7189 8.40259Z" fill="#1D1D26"/>
<path d="M69.9318 8.43612C68.1102 8.84743 66.8175 10.1233 66.3559 11.9617C66.1628 12.7255 66.1544 14.2617 66.3475 15.0591C66.742 16.7295 68.0011 17.9971 69.6883 18.442C70.4102 18.6266 71.8792 18.6266 72.6515 18.4252C74.154 18.0474 75.3712 16.9898 75.8916 15.6299C76.1938 14.7989 76.3281 13.9007 76.2694 12.969C76.1854 11.4496 75.7825 10.4675 74.9263 9.60291C74.3891 9.07407 74.0029 8.83064 73.1971 8.54524C72.5759 8.3186 70.7124 8.25984 69.9318 8.43612ZM72.3996 10.4423C72.9621 10.6941 73.4657 11.2817 73.6672 11.8945C73.7931 12.2806 73.8267 12.6248 73.8267 13.5146C73.8183 14.4967 73.7931 14.7149 73.6252 15.1347C73.3818 15.7558 73.0292 16.1504 72.492 16.4274C72.1226 16.6204 71.9548 16.6456 71.3084 16.6456C70.4774 16.6456 70.0241 16.5029 69.5204 16.0832C68.7314 15.4033 68.3705 13.7832 68.7062 12.3562C68.9413 11.3825 69.3777 10.7949 70.1332 10.4423C70.7292 10.1569 71.8037 10.1569 72.3996 10.4423Z" fill="#1D1D26"/>
<path d="M79.8535 8.43612C78.863 8.71313 77.9816 9.40985 77.6375 10.1821C77.3605 10.8117 77.3605 11.9533 77.6459 12.5493C77.99 13.2544 78.3762 13.5566 79.8619 14.2701C80.609 14.631 81.2889 15.0087 81.3729 15.1011C81.5911 15.3445 81.6499 15.9741 81.4736 16.2427C80.9951 16.973 79.2156 16.8974 77.8809 16.0832L77.394 15.7894V16.9226V18.0474L77.6962 18.1733C78.628 18.5595 80.4243 18.6854 81.4065 18.4336C82.4893 18.1566 83.2867 17.569 83.6897 16.7463C83.8575 16.3938 83.8911 16.2007 83.8911 15.5292C83.8911 14.8744 83.8659 14.673 83.7148 14.3876C83.2951 13.5901 82.7579 13.1872 81.247 12.5073C80.1389 12.0204 79.8367 11.7602 79.7696 11.2566C79.6101 10.1066 81.3477 9.77079 83.0433 10.627L83.4462 10.8369L83.421 9.7624L83.3959 8.69634L82.8922 8.53685C82.2039 8.3186 80.4663 8.25985 79.8535 8.43612Z" fill="#1D1D26"/>
<path d="M88.6004 8.46968C87.4168 8.76347 86.3844 9.47697 85.78 10.4171C84.907 11.7854 84.7139 14.0182 85.3267 15.6719C86.0822 17.6949 88.2227 18.8532 90.6486 18.5511C92.0336 18.3832 92.7891 18.039 93.6369 17.1744C94.661 16.1419 95.0555 15.0759 95.0555 13.3467C95.0555 11.6595 94.661 10.5514 93.7376 9.61968C93.1165 9.0069 92.5792 8.70471 91.6979 8.47807C90.8668 8.25982 89.4398 8.25982 88.6004 8.46968ZM91.2949 10.4675C91.765 10.7193 92.2015 11.223 92.4282 11.8022C92.5876 12.2219 92.6212 12.4569 92.6212 13.3887C92.6296 15.1095 92.2771 15.9153 91.2949 16.4105C90.85 16.6288 90.7073 16.654 90.0778 16.654C89.1712 16.6456 88.6088 16.4273 88.1387 15.8901C87.5931 15.2605 87.4336 14.7401 87.4252 13.5146C87.4252 11.8357 87.803 11.0131 88.8271 10.4927C89.3307 10.2408 89.3895 10.2324 90.1533 10.2576C90.7577 10.2828 91.0347 10.3332 91.2949 10.4675Z" fill="#1D1D26"/>
<path d="M46.9233 13.4307V18.3832H48.0985H49.2737L49.2569 13.4475L49.2317 8.5201L48.0817 8.49492L46.9233 8.46974V13.4307Z" fill="#1D1D26"/>
<path d="M0 17.5438V23H5.4562H10.9124V17.5438V12.0876H5.4562H0V17.5438Z" fill="#1D1D26"/>
<path d="M12.0205 17.5186L12.0456 22.958L17.485 22.9832L22.9161 23V17.5438V12.0876H17.4599H12.0037L12.0205 17.5186Z" fill="#1D1D26"/>
</svg>
