<svg width="23" height="23" viewBox="0 0 23 23" fill="none" xmlns="http://www.w3.org/2000/svg">
<path d="M11.96 3.21999C11.9647 3.32435 11.9695 3.42871 11.9743 3.53624C12.0429 3.93928 12.0429 3.93928 12.4128 4.17592C12.6052 4.28196 12.7984 4.38673 12.995 4.48499C13.11 4.59999 13.225 4.71499 13.34 4.82999C13.7622 5.04111 14.1357 5.07302 14.605 5.05999C14.835 5.51999 14.835 5.51999 14.835 5.86499C14.9038 5.89819 14.9725 5.9314 15.0434 5.96561C15.295 6.09499 15.295 6.09499 15.64 6.32499C15.7159 6.36294 15.7918 6.40089 15.87 6.43999C15.9838 6.51589 16.0977 6.59179 16.215 6.66999C16.2909 6.70794 16.3668 6.74589 16.445 6.78499C16.6157 6.89884 16.6157 6.89884 16.79 7.01499C16.8327 6.9047 16.8327 6.9047 16.8762 6.79218C16.9237 6.7139 16.9711 6.63563 17.02 6.55499C17.0935 6.53838 17.167 6.52178 17.2428 6.50468C17.5927 6.40924 17.647 6.16683 17.825 5.86499C17.9388 5.86499 18.0527 5.86499 18.17 5.86499C18.2376 5.66931 18.2376 5.66931 18.3065 5.46967C18.515 5.05999 18.515 5.05999 18.7953 4.92342C19.09 4.94499 19.09 4.94499 19.3631 5.13186C19.55 5.40499 19.55 5.40499 19.5284 5.69967C19.4589 5.90811 19.3894 6.11655 19.32 6.32499C19.2346 6.32024 19.1492 6.3155 19.0612 6.31061C18.6413 6.3297 18.4103 6.44411 18.0981 6.7203C17.9164 6.91867 17.9164 6.91867 17.71 7.24499C17.4656 7.32405 17.4656 7.32405 17.25 7.35999C17.3458 7.60915 17.3458 7.60915 17.595 7.70499C17.6329 7.81884 17.6709 7.93269 17.71 8.04999C17.7859 8.16384 17.8618 8.27769 17.94 8.39499C17.9755 8.47089 18.0111 8.54679 18.0478 8.62499C18.2222 8.95324 18.413 9.149 18.745 9.31499C18.745 9.42884 18.745 9.54269 18.745 9.65999C18.8232 9.73114 18.9015 9.8023 18.9822 9.87561C19.0924 9.99658 19.0924 9.99658 19.205 10.12C19.1762 10.4362 19.1762 10.4362 19.09 10.695C19.0212 10.676 18.9524 10.657 18.8815 10.6375C18.6169 10.5672 18.6169 10.5672 18.285 10.58C18.247 10.3143 18.2091 10.0487 18.17 9.77499C18.0561 9.73704 17.9423 9.69909 17.825 9.65999C17.7842 9.50727 17.7462 9.35384 17.71 9.19999C17.5974 9.08257 17.4823 8.96762 17.365 8.85499C17.2883 8.70165 17.2116 8.54832 17.135 8.39499C17.078 8.33806 17.0211 8.28114 16.9625 8.22249C16.79 8.04999 16.79 8.04999 16.675 7.80561C16.5701 7.54939 16.5701 7.54939 16.215 7.47499C16.0442 7.36114 16.0442 7.36114 15.87 7.24499C15.7941 7.20704 15.7182 7.16909 15.64 7.12999C15.41 7.01499 15.41 7.01499 15.065 6.78499C14.9891 6.74704 14.9132 6.70909 14.835 6.66999C14.7211 6.59409 14.6073 6.51819 14.49 6.43999C14.3475 6.55687 14.3475 6.55687 14.3619 6.80029C14.3625 6.90568 14.3631 7.01107 14.3637 7.11966C14.3641 7.23343 14.3645 7.34721 14.3649 7.46443C14.3658 7.58414 14.3668 7.70384 14.3678 7.82718C14.3683 7.94733 14.3688 8.06748 14.3694 8.19127C14.3707 8.48918 14.3726 8.78708 14.375 9.08499C14.4461 9.12057 14.5173 9.15614 14.5906 9.1928C14.7487 9.27186 14.9068 9.35093 15.065 9.42999C15.051 9.55295 15.051 9.55295 15.0367 9.67841C14.9915 10.3407 14.9915 10.3407 15.2078 10.9542C15.5789 11.3637 15.8867 11.5424 16.4378 11.6078C16.5934 11.6138 16.7492 11.6175 16.905 11.615C16.905 11.9186 16.905 12.2222 16.905 12.535C16.5231 12.7259 16.3011 12.7763 15.87 12.765C15.755 12.535 15.755 12.535 15.64 12.19C15.5261 12.0951 15.4123 12.0002 15.295 11.9025C14.95 11.615 14.95 11.615 14.835 11.27C14.731 11.267 14.6271 11.2641 14.5201 11.261C14.3844 11.2545 14.2488 11.248 14.109 11.2412C13.9743 11.2359 13.8395 11.2306 13.7007 11.2251C13.34 11.155 13.34 11.155 13.1194 10.9196C13.0578 10.8084 13.0578 10.8084 12.995 10.695C12.957 10.7709 12.9191 10.8468 12.88 10.925C12.5422 11.0615 12.5422 11.0615 12.19 11.155C12.1141 11.117 12.0382 11.0791 11.96 11.04C11.922 11.1159 11.8841 11.1918 11.845 11.27C11.6742 11.2131 11.6742 11.2131 11.5 11.155C11.462 11.2309 11.4241 11.3068 11.385 11.385C11.0903 11.4569 11.0903 11.4569 10.81 11.5C10.753 11.7277 10.753 11.7277 10.695 11.96C10.2655 12.061 9.87068 12.0852 9.42997 12.075C9.39202 11.9611 9.35407 11.8473 9.31497 11.73C9.23907 11.73 9.16317 11.73 9.08497 11.73C9.08497 11.4643 9.08497 11.1987 9.08497 10.925C8.81677 10.7863 8.56788 10.676 8.27997 10.58C8.27997 10.5041 8.27997 10.4282 8.27997 10.35C8.16612 10.4069 8.16612 10.4069 8.04997 10.465C7.66309 10.5893 7.30437 10.5892 6.89997 10.58C6.88573 10.6535 6.8715 10.727 6.85684 10.8028C6.83312 10.8811 6.8094 10.9593 6.78497 11.04C6.67112 11.0969 6.67112 11.0969 6.55497 11.155C6.51702 11.2309 6.47907 11.3068 6.43997 11.385C6.38304 11.4348 6.32612 11.4846 6.26747 11.5359C6.04841 11.7824 6.03738 11.9851 5.97997 12.305C5.86612 12.4188 5.86612 12.4188 5.74997 12.535C5.41249 12.4928 5.30556 12.4356 5.05997 12.19C5.04559 11.8306 5.04559 11.8306 5.05997 11.5C5.22718 11.4537 5.22718 11.4537 5.39778 11.4065C5.57211 11.339 5.57211 11.339 5.74997 11.27C5.80689 11.0992 5.80689 11.0992 5.86497 10.925C6.0183 10.695 6.17163 10.465 6.32497 10.235C6.26804 10.1781 6.26804 10.1781 6.20997 10.12C6.10713 9.78862 6.09497 9.55837 6.09497 9.19999C5.99298 9.1905 5.89098 9.18101 5.7859 9.17124C5.40497 9.08499 5.40497 9.08499 5.16059 8.8478C4.63309 8.49231 4.06804 8.5895 3.44997 8.62499C3.24108 8.20721 3.20968 7.94818 3.21997 7.47499C3.65739 7.25627 4.00226 7.23426 4.48497 7.24499C4.60715 7.45343 4.60715 7.45343 4.71497 7.70499C4.67702 7.81884 4.63907 7.93269 4.59997 8.04999C4.66401 8.02153 4.72805 7.99306 4.79403 7.96374C4.88179 7.95425 4.96955 7.94476 5.05997 7.93499C5.14535 8.00614 5.23074 8.0773 5.31872 8.15061C5.74154 8.47734 6.02797 8.47426 6.55497 8.50999C6.59292 8.39614 6.63087 8.28229 6.66997 8.16499C6.88065 8.07514 6.88065 8.07514 7.12997 8.04999C7.26991 8.10691 7.40985 8.16384 7.55403 8.22249C7.79291 8.30309 7.79291 8.30309 8.04997 8.27999C8.55205 7.95947 8.98569 7.54529 9.17571 6.97051C9.21613 6.69694 9.21613 6.69694 9.19997 6.32499C9.04698 6.33922 9.04698 6.33922 8.8909 6.35374C8.4226 6.31839 8.29027 6.15811 7.93497 5.86499C7.70599 5.82095 7.476 5.78149 7.24497 5.74999C7.18804 5.63614 7.18804 5.63614 7.12997 5.51999C7.06059 5.53496 6.99121 5.54993 6.91973 5.56536C6.6372 5.61412 6.38171 5.64632 6.09497 5.63499C5.79309 5.39061 5.79309 5.39061 5.63497 5.05999C5.65419 4.66591 5.7898 4.36728 5.97997 4.02499C6.85684 4.24061 6.85684 4.24061 7.24497 4.36999C7.24497 4.55974 7.24497 4.74949 7.24497 4.94499C7.40151 4.9948 7.40151 4.9948 7.56122 5.04561C7.85919 5.14876 8.11659 5.26131 8.39497 5.40499C8.91353 5.64204 9.44927 5.75118 10.005 5.86499C10.0429 5.78909 10.0809 5.71319 10.12 5.63499C10.1769 5.5496 10.2338 5.46421 10.2925 5.37624C10.4809 5.03069 10.5235 4.75694 10.58 4.36999C10.7221 3.95365 10.8969 3.57737 11.155 3.21999C11.4964 3.0706 11.5967 3.09891 11.96 3.21999ZM11.385 4.25499C11.2575 4.5645 11.1434 4.86843 11.0472 5.18936C10.9264 5.51618 10.8297 5.63693 10.58 5.86499C10.542 5.97884 10.5041 6.09269 10.465 6.20999C10.5907 6.44711 10.5907 6.44711 10.7812 6.67718C10.8423 6.75678 10.9034 6.83639 10.9663 6.91841C11.1901 7.16935 11.4301 7.32508 11.73 7.47499C11.836 7.59706 11.9385 7.7221 12.039 7.84874C12.441 8.32869 12.8914 8.68821 13.455 8.96999C13.5309 9.04589 13.6068 9.12179 13.685 9.19999C13.7609 9.19999 13.8368 9.19999 13.915 9.19999C13.915 8.28919 13.915 7.37839 13.915 6.43999C13.8391 6.40204 13.7632 6.36409 13.685 6.32499C13.455 6.09499 13.455 6.09499 13.4047 5.80749C13.3657 5.47981 13.3657 5.47981 12.995 5.28999C12.9191 5.25204 12.8432 5.21409 12.765 5.17499C12.65 5.05999 12.535 4.94499 12.42 4.82999C12.3441 4.79204 12.2682 4.75409 12.19 4.71499C12.1378 4.65806 12.0856 4.60114 12.0318 4.54249C11.8186 4.34562 11.6673 4.30366 11.385 4.25499ZM10.58 7.24499C10.5041 7.32089 10.4282 7.39679 10.35 7.47499C10.2337 7.45838 10.1175 7.44178 9.99778 7.42468C9.38274 7.49301 9.12788 7.74419 8.71391 8.18925C8.41513 8.65913 8.40962 9.04503 8.42866 9.59081C8.52832 9.95753 8.64862 10.0447 8.96997 10.235C9.03638 10.2777 9.10279 10.3204 9.17122 10.3644C9.42571 10.4633 9.62725 10.4939 9.89715 10.5225C10.35 10.58 10.35 10.58 10.695 10.81C10.9473 10.8172 10.9473 10.8172 11.2125 10.774C11.3459 10.7569 11.3459 10.7569 11.482 10.7395C11.7498 10.6976 11.7498 10.6976 12.075 10.58C12.075 10.5041 12.075 10.4282 12.075 10.35C12.203 10.3524 12.3311 10.3547 12.4631 10.3572C12.8607 10.3803 12.8607 10.3803 13.11 10.235C13.2052 9.94931 13.225 9.73448 13.225 9.42999C13.0387 9.21409 13.0387 9.21409 12.7937 9.01311C12.7137 8.94285 12.6336 8.87258 12.5511 8.80018C12.3053 8.62521 12.1338 8.57578 11.845 8.50999C11.7228 8.28718 11.7228 8.28718 11.615 8.04999C11.2961 7.82712 11.2961 7.82712 11.04 7.70499C10.8844 7.55396 10.7308 7.40081 10.58 7.24499ZM8.39497 8.62499C8.50997 8.85499 8.50997 8.85499 8.50997 8.85499L8.39497 8.62499Z" fill="#1D1D26"/>
<path d="M11.96 3.21999C11.9647 3.32435 11.9695 3.42871 11.9743 3.53624C12.0429 3.93927 12.0429 3.93927 12.4128 4.17592C12.6052 4.28196 12.7984 4.38673 12.995 4.48499C13.11 4.59999 13.225 4.71499 13.34 4.82999C13.7622 5.0411 14.1357 5.07302 14.605 5.05999C14.835 5.51999 14.835 5.51999 14.835 5.86499C14.9038 5.89819 14.9725 5.9314 15.0434 5.96561C15.295 6.09499 15.295 6.09499 15.64 6.32499C15.7159 6.36294 15.7918 6.40089 15.87 6.43999C15.9838 6.51589 16.0977 6.59179 16.215 6.66999C16.2909 6.70794 16.3668 6.74589 16.445 6.78499C16.5588 6.86089 16.6727 6.93679 16.79 7.01499C16.8184 6.94146 16.8469 6.86793 16.8762 6.79217C16.9474 6.67477 16.9474 6.67477 17.02 6.55499C17.0935 6.53838 17.167 6.52178 17.2428 6.50467C17.5927 6.40924 17.647 6.16683 17.825 5.86499C17.9388 5.86499 18.0527 5.86499 18.17 5.86499C18.2376 5.66931 18.2376 5.66931 18.3065 5.46967C18.515 5.05999 18.515 5.05999 18.7953 4.92342C19.09 4.94499 19.09 4.94499 19.3631 5.13186C19.55 5.40499 19.55 5.40499 19.5284 5.69967C19.4589 5.90811 19.3894 6.11655 19.32 6.32499C19.2346 6.32024 19.1492 6.3155 19.0612 6.31061C18.6414 6.3297 18.4103 6.44411 18.0981 6.7203C17.9164 6.91867 17.9164 6.91867 17.71 7.24499C17.4656 7.32405 17.4656 7.32405 17.25 7.35999C17.3458 7.60915 17.3458 7.60915 17.595 7.70499C17.6329 7.81884 17.6709 7.93269 17.71 8.04999C17.7859 8.16384 17.8618 8.27769 17.94 8.39499C17.9755 8.47089 18.0111 8.54679 18.0478 8.62499C18.2222 8.95324 18.413 9.149 18.745 9.31499C18.745 9.42884 18.745 9.54269 18.745 9.65999C18.8232 9.73114 18.9015 9.8023 18.9822 9.87561C19.0924 9.99658 19.0924 9.99658 19.205 10.12C19.1762 10.4362 19.1762 10.4362 19.09 10.695C19.0212 10.676 18.9524 10.657 18.8815 10.6375C18.6169 10.5672 18.6169 10.5672 18.285 10.58C18.228 10.1815 18.228 10.1815 18.17 9.77499C17.9992 9.71806 17.9992 9.71806 17.825 9.65999C17.7842 9.50727 17.7462 9.35384 17.71 9.19999C17.5974 9.08257 17.4823 8.96762 17.365 8.85499C17.2883 8.70165 17.2116 8.54832 17.135 8.39499C17.078 8.33806 17.0211 8.28114 16.9625 8.22249C16.79 8.04999 16.79 8.04999 16.675 7.80561C16.5701 7.54939 16.5701 7.54939 16.215 7.47499C16.1011 7.39909 15.9873 7.32319 15.87 7.24499C15.7561 7.18806 15.7561 7.18806 15.64 7.12999C15.41 7.01499 15.41 7.01499 15.065 6.78499C14.9891 6.74704 14.9132 6.70909 14.835 6.66999C14.7211 6.59409 14.6073 6.51819 14.49 6.43999C14.3475 6.55687 14.3475 6.55687 14.3619 6.80029C14.3625 6.90568 14.3631 7.01107 14.3637 7.11965C14.3641 7.23343 14.3645 7.34721 14.3649 7.46443C14.3658 7.58413 14.3668 7.70384 14.3678 7.82717C14.3683 7.94732 14.3688 8.06747 14.3694 8.19127C14.3707 8.48918 14.3726 8.78708 14.375 9.08499C14.4461 9.12056 14.5173 9.15614 14.5906 9.1928C14.7487 9.27186 14.9068 9.35092 15.065 9.42999C15.0556 9.51196 15.0463 9.59394 15.0367 9.6784C14.9915 10.3407 14.9915 10.3407 15.2078 10.9542C15.5789 11.3637 15.8867 11.5424 16.4378 11.6078C16.5934 11.6138 16.7492 11.6175 16.905 11.615C16.905 11.9186 16.905 12.2222 16.905 12.535C16.5231 12.7259 16.3011 12.7763 15.87 12.765C15.755 12.535 15.755 12.535 15.64 12.19C15.4692 12.0477 15.4692 12.0477 15.295 11.9025C14.95 11.615 14.95 11.615 14.835 11.27C14.731 11.267 14.6271 11.2641 14.5201 11.261C14.3844 11.2545 14.2488 11.248 14.109 11.2412C13.9743 11.2359 13.8395 11.2306 13.7007 11.2251C13.34 11.155 13.34 11.155 13.1194 10.9196C13.0578 10.8084 13.0578 10.8084 12.995 10.695C12.957 10.7709 12.9191 10.8468 12.88 10.925C12.5422 11.0615 12.5422 11.0615 12.19 11.155C12.1141 11.117 12.0382 11.0791 11.96 11.04C11.903 11.1538 11.903 11.1538 11.845 11.27C11.7311 11.232 11.6173 11.1941 11.5 11.155C11.443 11.2688 11.443 11.2688 11.385 11.385C11.3352 11.3138 11.2853 11.2427 11.234 11.1694C11.0403 10.8997 11.0403 10.8997 10.695 10.695C10.7993 10.6997 10.9037 10.7045 11.0112 10.7094C11.3777 10.6953 11.5319 10.6327 11.845 10.465C11.9209 10.5029 11.9968 10.5409 12.075 10.58C12.075 10.5041 12.075 10.4282 12.075 10.35C12.8512 10.235 12.8512 10.235 13.11 10.235C13.053 9.95036 13.053 9.95036 12.995 9.65999C13.1468 9.65999 13.2986 9.65999 13.455 9.65999C13.366 9.56037 13.366 9.56037 13.2753 9.45874C13.11 9.19999 13.11 9.19999 13.1459 8.94124C13.172 8.87482 13.1981 8.80841 13.225 8.73999C13.57 8.85499 13.57 8.85499 13.685 9.08499C13.7229 9.08499 13.7609 9.08499 13.8 9.08499C13.8 8.25009 13.8 7.41519 13.8 6.55499C13.7241 6.51704 13.6482 6.47909 13.57 6.43999C13.4941 6.40204 13.4182 6.36409 13.34 6.32499C13.3471 6.21588 13.3542 6.10677 13.3615 5.99436C13.3544 5.87577 13.3473 5.75717 13.34 5.63499C13.0101 5.39322 13.0101 5.39322 12.65 5.28999C12.612 5.17614 12.5741 5.06229 12.535 4.94499C12.4591 4.92601 12.3832 4.90704 12.305 4.88749C12.2291 4.86851 12.1532 4.84954 12.075 4.82999C12.037 4.71614 11.9991 4.60229 11.96 4.48499C11.7702 4.44704 11.5805 4.40909 11.385 4.36999C11.3541 4.5123 11.3233 4.65461 11.2915 4.80124C11.1957 5.18445 11.0957 5.46422 10.81 5.74999C10.7341 5.74999 10.6582 5.74999 10.58 5.74999C10.5823 5.62428 10.5847 5.49857 10.5872 5.36905C10.6013 4.95144 10.6013 4.95144 10.465 4.59999C10.577 4.40655 10.6923 4.21504 10.81 4.02499C10.85 3.83367 10.8886 3.64204 10.925 3.44999C11.2743 3.1007 11.4928 3.06427 11.96 3.21999Z" fill="#1D1D26"/>
<path d="M7.58997 14.145C8.38692 14.145 9.18387 14.145 10.005 14.145C10.0429 14.2589 10.0809 14.3727 10.12 14.49C10.1804 14.4046 10.1804 14.4046 10.2422 14.3175C10.587 14.0506 10.8441 14.1024 11.27 14.145C11.57 14.2322 11.7958 14.3393 12.075 14.49C12.2751 15.0903 12.3194 15.6111 12.3122 16.2438C12.3116 16.3294 12.3111 16.4151 12.3106 16.5034C12.3092 16.714 12.3072 16.9245 12.305 17.135C11.9634 17.135 11.6219 17.135 11.27 17.135C11.2713 17.0145 11.2726 16.894 11.274 16.7698C11.2751 16.6112 11.2761 16.4527 11.2772 16.2941C11.2786 16.175 11.2786 16.175 11.2801 16.0535C11.2818 15.692 11.2702 15.4107 11.155 15.065C10.9652 15.103 10.7755 15.1409 10.58 15.18C10.58 15.7872 10.58 16.3944 10.58 17.02C10.0107 17.0769 10.0107 17.0769 9.42997 17.135C9.42997 16.4899 9.42997 15.8447 9.42997 15.18C9.27817 15.1041 9.12637 15.0282 8.96997 14.95C8.93202 15.0259 8.89407 15.1018 8.85497 15.18C8.81702 15.18 8.77907 15.18 8.73997 15.18C8.73687 15.4627 8.73458 15.7454 8.73278 16.0281C8.73181 16.1085 8.73085 16.1888 8.72986 16.2716C8.71886 16.7179 8.71886 16.7179 8.85497 17.135C8.93087 17.135 9.00677 17.135 9.08497 17.135C9.04702 17.2868 9.00907 17.4386 8.96997 17.595C8.85612 17.595 8.74227 17.595 8.62497 17.595C8.58702 17.4432 8.54907 17.2914 8.50997 17.135C8.20637 17.0971 7.90277 17.0591 7.58997 17.02C7.58997 16.0713 7.58997 15.1225 7.58997 14.145Z" fill="#1D1D26"/>
<path d="M13.9149 6.44C14.0667 6.47795 14.2185 6.5159 14.3749 6.555C14.3749 7.3899 14.3749 8.2248 14.3749 9.085C14.5267 9.1609 14.6785 9.2368 14.8349 9.315C14.9108 9.35295 14.9867 9.3909 15.0649 9.43C15.0556 9.51198 15.0463 9.59396 15.0366 9.67842C14.9914 10.3407 14.9914 10.3407 15.2078 10.9542C15.5789 11.3637 15.8867 11.5424 16.4378 11.6078C16.5934 11.6138 16.7492 11.6175 16.9049 11.615C16.9049 11.9186 16.9049 12.2222 16.9049 12.535C16.5231 12.7259 16.3011 12.7763 15.8699 12.765C15.7549 12.535 15.7549 12.535 15.6399 12.19C15.5261 12.0951 15.4122 12.0003 15.2949 11.9025C14.9499 11.615 14.9499 11.615 14.8349 11.27C14.731 11.267 14.6271 11.2641 14.52 11.261C14.3844 11.2545 14.2488 11.248 14.109 11.2413C13.9743 11.2359 13.8395 11.2306 13.7007 11.2251C13.3399 11.155 13.3399 11.155 13.1194 10.9196C13.0578 10.8084 13.0578 10.8084 12.9949 10.695C12.957 10.7709 12.919 10.8468 12.8799 10.925C12.5421 11.0616 12.5421 11.0616 12.1899 11.155C12.114 11.1171 12.0381 11.0791 11.9599 11.04C11.922 11.1159 11.884 11.1918 11.8449 11.27C11.7311 11.2321 11.6172 11.1941 11.4999 11.155C11.462 11.2309 11.424 11.3068 11.3849 11.385C11.3351 11.3138 11.2853 11.2427 11.234 11.1694C11.0402 10.8997 11.0402 10.8997 10.6949 10.695C10.7993 10.6997 10.9037 10.7045 11.0112 10.7094C11.3777 10.6953 11.5319 10.6327 11.8449 10.465C11.9208 10.503 11.9967 10.5409 12.0749 10.58C12.0749 10.5041 12.0749 10.4282 12.0749 10.35C12.8512 10.235 12.8512 10.235 13.1099 10.235C13.053 9.95038 13.053 9.95038 12.9949 9.66C13.1467 9.66 13.2985 9.66 13.4549 9.66C13.366 9.56038 13.366 9.56038 13.2753 9.45875C13.1099 9.2 13.1099 9.2 13.1459 8.94125C13.172 8.87484 13.1981 8.80843 13.2249 8.74C13.5699 8.855 13.5699 8.855 13.6849 9.085C13.7229 9.085 13.7608 9.085 13.7999 9.085C13.8379 8.21215 13.8758 7.3393 13.9149 6.44Z" fill="#1D1D26"/>
<path d="M13.7713 14.1163C14.2003 14.1272 14.5504 14.2115 14.95 14.375C15.0378 14.4082 15.1255 14.4414 15.2159 14.4756C15.41 14.605 15.41 14.605 15.5034 14.835C15.525 15.065 15.525 15.065 15.41 15.295C15.4859 15.333 15.5618 15.3709 15.64 15.41C15.6021 15.5998 15.5641 15.7895 15.525 15.985C14.8799 15.9471 14.2347 15.9091 13.57 15.87C13.608 15.9459 13.6459 16.0218 13.685 16.1C14.2198 16.131 14.2198 16.131 14.72 15.985C14.9477 16.1748 15.1754 16.3645 15.41 16.56C15.3721 16.6739 15.3341 16.7877 15.295 16.905C13.9487 17.1743 13.9487 17.1743 13.3041 16.7972C13.2021 16.7189 13.1001 16.6407 12.995 16.56C12.8812 16.5221 12.7673 16.4841 12.65 16.445C12.5213 16.1125 12.5226 15.7921 12.5278 15.4388C12.5289 15.3469 12.5299 15.255 12.531 15.1603C12.5323 15.0909 12.5336 15.0215 12.535 14.95C12.6109 14.95 12.6868 14.95 12.765 14.95C12.8844 14.761 12.9991 14.5691 13.11 14.375C13.34 14.145 13.34 14.145 13.7713 14.1163ZM13.685 14.95C13.6471 15.0639 13.6091 15.1777 13.57 15.295C13.9116 15.295 14.2531 15.295 14.605 15.295C14.5671 15.1812 14.5291 15.0673 14.49 14.95C14.2244 14.95 13.9587 14.95 13.685 14.95Z" fill="#1D1D26"/>
<path d="M1.03503 14.145C1.3244 14.1379 1.61377 14.1308 1.91191 14.1234C2.04658 14.1187 2.04658 14.1187 2.18397 14.1139C2.72675 14.1075 3.10237 14.1773 3.56503 14.49C3.97725 14.9708 3.97134 15.4731 3.9891 16.0784C3.99499 16.2144 3.99499 16.2144 4.001 16.3531C4.01043 16.5754 4.01793 16.7977 4.02503 17.02C3.45578 17.0769 3.45578 17.0769 2.87503 17.135C2.87503 16.4898 2.87503 15.8447 2.87503 15.18C2.72323 15.142 2.57143 15.1041 2.41503 15.065C2.13259 15.3586 2.07141 15.5088 2.03634 15.9221C2.04035 16.0662 2.04435 16.2103 2.04847 16.3587C2.05158 16.504 2.0547 16.6493 2.05791 16.799C2.06191 16.9099 2.06591 17.0208 2.07003 17.135C1.72848 17.135 1.38693 17.135 1.03503 17.135C1.03503 16.1483 1.03503 15.1616 1.03503 14.145Z" fill="#1D1D26"/>
<path d="M4.255 14.145C4.59655 14.183 4.9381 14.2209 5.29 14.26C5.29445 14.4303 5.29445 14.4303 5.29899 14.6041C5.30551 14.7515 5.31203 14.8988 5.31875 15.0506C5.32409 15.1974 5.32943 15.3442 5.33493 15.4954C5.36194 15.8806 5.36194 15.8806 5.6404 16.0362C5.71452 16.0573 5.78864 16.0783 5.865 16.1C5.9409 16.0241 6.0168 15.9482 6.095 15.87C6.1709 15.8321 6.2468 15.7941 6.325 15.755C6.325 15.2617 6.325 14.7683 6.325 14.26C6.59065 14.26 6.8563 14.26 7.13 14.26C7.16795 15.2088 7.2059 16.1575 7.245 17.135C6.21 17.135 6.21 17.135 5.865 17.02C5.75827 17.0271 5.65154 17.0343 5.54157 17.0416C5.06731 17.0137 4.84592 16.8622 4.485 16.56C4.37882 16.2514 4.35083 15.952 4.33362 15.6274C4.3288 15.5407 4.32398 15.454 4.31902 15.3646C4.3145 15.2753 4.30998 15.1859 4.30532 15.0938C4.30035 15.0026 4.29539 14.9114 4.29027 14.8175C4.27812 14.5934 4.26651 14.3692 4.255 14.145Z" fill="#1D1D26"/>
<path d="M19.895 14.145C21.2269 14.0221 21.2269 14.0221 21.6173 14.3161C21.8127 14.592 21.965 14.8346 21.965 15.18C21.6614 15.2559 21.3578 15.3318 21.045 15.41C20.9691 15.2961 20.8932 15.1823 20.815 15.065C20.6253 15.1029 20.4355 15.1409 20.24 15.18C20.24 15.4077 20.24 15.6354 20.24 15.87C20.515 15.9972 20.515 15.9972 20.815 16.1C20.8909 16.062 20.9668 16.0241 21.045 15.985C21.1589 15.947 21.2727 15.9091 21.39 15.87C21.5798 16.0597 21.7695 16.2495 21.965 16.445C21.8932 16.6678 21.8932 16.6678 21.735 16.905C21.426 16.9912 21.426 16.9912 21.045 17.02C20.9122 17.0318 20.7794 17.0437 20.6425 17.0559C20.1581 17.0127 19.9344 16.8482 19.55 16.56C19.4362 16.522 19.3223 16.4841 19.205 16.445C19.1153 15.9792 19.0525 15.5393 19.09 15.065C19.2753 14.809 19.4507 14.6705 19.7149 14.4999C19.7743 14.4586 19.8338 14.4174 19.895 14.375C19.895 14.2991 19.895 14.2232 19.895 14.145Z" fill="#1D1D26"/>
<path d="M17.71 14.145C17.71 14.4865 17.71 14.8281 17.71 15.18C17.4444 15.18 17.1787 15.18 16.905 15.18C16.905 15.7872 16.905 16.3944 16.905 17.02C16.3358 17.0769 16.3358 17.0769 15.755 17.135C15.793 16.1862 15.8309 15.2375 15.87 14.26C16.5209 14.167 17.0628 14.135 17.71 14.145ZM16.675 14.26C16.713 14.3359 16.7509 14.4118 16.79 14.49C16.828 14.4141 16.8659 14.3382 16.905 14.26C16.8291 14.26 16.7532 14.26 16.675 14.26Z" fill="#1D1D26"/>
<path d="M3.44997 7.245C3.79152 7.245 4.13307 7.245 4.48497 7.245C4.56087 7.3968 4.63677 7.5486 4.71497 7.705C4.67702 7.81885 4.63907 7.9327 4.59997 8.05C4.69603 8.0073 4.69603 8.0073 4.79403 7.96375C4.92567 7.94951 4.92567 7.94951 5.05997 7.935C5.14773 8.00615 5.23548 8.07731 5.3259 8.15062C5.70003 8.44644 5.97139 8.47324 6.43997 8.51C6.32612 8.56692 6.32612 8.56692 6.20997 8.625C6.20997 8.7768 6.20997 8.9286 6.20997 9.085C5.95122 9.16406 5.95122 9.16406 5.63497 9.2C5.40497 9.04906 5.40497 9.04906 5.17497 8.855C4.62619 8.54833 4.06004 8.60367 3.44997 8.625C3.24108 8.20722 3.20968 7.94819 3.21997 7.475C3.29587 7.43705 3.37177 7.3991 3.44997 7.36C3.44997 7.32205 3.44997 7.2841 3.44997 7.245Z" fill="#1D1D26"/>
<path d="M18.975 14.26C18.937 15.2088 18.8991 16.1575 18.86 17.135C18.5184 17.135 18.1769 17.135 17.825 17.135C17.8629 16.1863 17.9009 15.2375 17.94 14.26C18.745 14.145 18.745 14.145 18.975 14.26Z" fill="#1D1D26"/>
<path d="M11.96 3.21999C11.9671 3.37297 11.9671 3.37297 11.9743 3.52905C12.1119 4.04986 12.3352 4.17408 12.765 4.48499C12.727 4.59884 12.6891 4.71269 12.65 4.82999C12.4128 4.90905 12.4128 4.90905 12.19 4.94499C12.1639 4.87146 12.1378 4.79793 12.1109 4.72217C11.9769 4.45371 11.9769 4.45371 11.6581 4.39874C11.568 4.38925 11.4778 4.37976 11.385 4.36999C11.3541 4.5123 11.3233 4.65461 11.2915 4.80124C11.1957 5.18445 11.0957 5.46422 10.81 5.74999C10.7341 5.74999 10.6582 5.74999 10.58 5.74999C10.5823 5.62428 10.5847 5.49857 10.5872 5.36905C10.6013 4.95144 10.6013 4.95144 10.465 4.59999C10.577 4.40655 10.6923 4.21504 10.81 4.02499C10.85 3.83367 10.8886 3.64204 10.925 3.44999C11.2743 3.1007 11.4928 3.06427 11.96 3.21999Z" fill="#1D1D26"/>
<path d="M17.3219 7.56124C17.595 7.70499 17.595 7.70499 17.71 8.04999C17.8239 8.22076 17.8239 8.22076 17.94 8.39499C17.9756 8.47089 18.0112 8.54679 18.0479 8.62499C18.2222 8.95324 18.4131 9.149 18.745 9.31499C18.745 9.42884 18.745 9.54269 18.745 9.65999C18.8233 9.73114 18.9016 9.8023 18.9822 9.87561C19.0925 9.99658 19.0925 9.99658 19.205 10.12C19.1763 10.4362 19.1763 10.4362 19.09 10.695C19.0213 10.676 18.9525 10.657 18.8816 10.6375C18.617 10.5672 18.617 10.5672 18.285 10.58C18.2471 10.3143 18.2091 10.0487 18.17 9.77499C18.0562 9.73704 17.9423 9.69909 17.825 9.65999C17.7843 9.50727 17.7462 9.35384 17.71 9.19999C17.5975 9.08257 17.4824 8.96762 17.365 8.85499C17.2884 8.70165 17.2117 8.54832 17.135 8.39499C17.0758 8.33806 17.0165 8.28114 16.9554 8.22249C16.7598 8.01841 16.7224 7.86483 16.675 7.58999C17.02 7.47499 17.02 7.47499 17.3219 7.56124Z" fill="#1D1D26"/>
<path d="M19.32 5.06003C19.55 5.40503 19.55 5.40503 19.5141 5.69253C19.4556 5.90517 19.3897 6.11581 19.32 6.32503C19.2346 6.32028 19.1492 6.31554 19.0612 6.31065C18.6414 6.32974 18.4103 6.44415 18.0981 6.72034C17.9165 6.91871 17.9165 6.91871 17.71 7.24503C17.6341 7.20708 17.5582 7.16913 17.48 7.13003C17.5179 7.09208 17.5559 7.05413 17.595 7.01503C17.5191 6.93913 17.4432 6.86323 17.365 6.78503C17.5183 6.47836 17.6717 6.17169 17.825 5.86503C17.9388 5.86503 18.0527 5.86503 18.17 5.86503C18.2483 5.66935 18.2483 5.66935 18.3281 5.46971C18.5877 4.90067 18.7461 4.88787 19.32 5.06003Z" fill="#1D1D26"/>
<path d="M17.825 17.71C17.9927 17.7069 18.1604 17.7047 18.3281 17.7028C18.4215 17.7015 18.5149 17.7002 18.6111 17.6988C18.86 17.71 18.86 17.71 19.09 17.825C19.1259 18.1182 19.149 18.4004 19.1619 18.6947C19.1663 18.7765 19.1708 18.8582 19.1754 18.9425C19.1862 19.1449 19.1957 19.3475 19.205 19.55C18.7649 19.7928 18.4455 19.826 17.94 19.78C17.7172 19.6075 17.7172 19.6075 17.595 19.435C17.633 19.3591 17.6709 19.2832 17.71 19.205C17.71 19.1291 17.71 19.0532 17.71 18.975C17.6721 18.9371 17.6341 18.8991 17.595 18.86C17.564 18.3957 17.6029 18.1147 17.825 17.71ZM17.94 18.4C18.0159 18.5898 18.0918 18.7795 18.17 18.975C18.2839 18.9371 18.3977 18.8991 18.515 18.86C18.5909 18.86 18.6668 18.86 18.745 18.86C18.745 18.6323 18.745 18.4046 18.745 18.17C18.4744 18.17 18.1937 18.3136 17.94 18.4ZM18.63 19.09C18.4023 19.1659 18.1746 19.2418 17.94 19.32C17.978 19.3959 18.0159 19.4718 18.055 19.55C18.2827 19.5121 18.5104 19.4741 18.745 19.435C18.7071 19.3212 18.6691 19.2073 18.63 19.09Z" fill="#1D1D26"/>
<path d="M5.98001 4.02502C6.85688 4.24065 6.85688 4.24065 7.24501 4.37002C7.24501 4.55977 7.24501 4.74952 7.24501 4.94502C7.32091 4.98297 7.39681 5.02092 7.47501 5.06002C7.43706 5.21182 7.39911 5.36362 7.36001 5.52002C6.93603 5.59386 6.52594 5.64926 6.09501 5.63502C5.77876 5.39065 5.77876 5.39065 5.63501 5.06002C5.65423 4.66595 5.78984 4.36732 5.98001 4.02502Z" fill="#1D1D26"/>
<path d="M7.01504 17.71C7.43249 17.748 7.84994 17.7859 8.28004 17.825C8.28939 18.0645 8.29606 18.3041 8.30161 18.5438C8.30561 18.6772 8.30961 18.8106 8.31374 18.9481C8.2771 19.3525 8.23321 19.508 7.93504 19.78C7.67495 19.8501 7.67495 19.8501 7.39598 19.8663C7.30303 19.8728 7.21009 19.8793 7.11432 19.886C7.00825 19.8905 7.00825 19.8905 6.90004 19.895C6.86209 19.7432 6.82414 19.5914 6.78504 19.435C6.97479 19.3971 7.16454 19.3591 7.36004 19.32C7.28414 19.2821 7.20824 19.2441 7.13004 19.205C6.97336 19.0161 6.8197 18.8246 6.67004 18.63C6.70562 18.5423 6.7412 18.4545 6.77786 18.3641C6.86312 18.1484 6.94171 17.93 7.01504 17.71ZM7.24504 18.285C7.20709 18.4748 7.16914 18.6645 7.13004 18.86C7.40572 18.9382 7.40572 18.9382 7.70504 18.975C7.78094 18.8991 7.85684 18.8232 7.93504 18.745C7.8982 18.4457 7.8982 18.4457 7.82004 18.17C7.62215 18.17 7.43568 18.2358 7.24504 18.285ZM7.01504 18.4C7.13004 18.63 7.13004 18.63 7.13004 18.63L7.01504 18.4ZM7.82004 19.09C7.93504 19.435 7.93504 19.435 7.93504 19.435L7.82004 19.09Z" fill="#1D1D26"/>
<path d="M6.20998 10.235C6.28588 10.2729 6.36178 10.3109 6.43998 10.35C6.43998 10.4259 6.43998 10.5018 6.43998 10.58C6.55383 10.542 6.66768 10.5041 6.78498 10.465C6.82293 10.6168 6.86088 10.7686 6.89998 10.925C6.78613 11.0009 6.67228 11.0768 6.55498 11.155C6.51703 11.2309 6.47908 11.3068 6.43998 11.385C6.38305 11.4348 6.32613 11.4846 6.26748 11.5359C6.04842 11.7824 6.03739 11.9851 5.97998 12.305C5.90408 12.3809 5.82818 12.4568 5.74998 12.535C5.4125 12.4928 5.30557 12.4356 5.05998 12.19C5.0456 11.8306 5.0456 11.8306 5.05998 11.5C5.17145 11.4692 5.28293 11.4383 5.39779 11.4065C5.51401 11.3615 5.63023 11.3164 5.74998 11.27C5.78793 11.1561 5.82588 11.0423 5.86498 10.925C5.94088 10.8111 6.01678 10.6973 6.09498 10.58C6.13293 10.4661 6.17088 10.3523 6.20998 10.235Z" fill="#1D1D26"/>
<path d="M12.765 17.71C13.1445 17.748 13.524 17.7859 13.915 17.825C13.9316 17.9128 13.9482 18.0005 13.9653 18.091C14.0258 18.4094 14.0258 18.4094 14.145 18.745C13.7275 18.7071 13.3101 18.6691 12.88 18.63C12.9559 18.7059 13.0318 18.7818 13.11 18.86C13.4093 18.8232 13.4093 18.8232 13.685 18.745C13.7609 18.8968 13.8368 19.0486 13.915 19.205C13.8391 19.2809 13.7632 19.3568 13.685 19.435C13.647 19.3971 13.6091 19.3591 13.57 19.32C13.2629 19.3038 12.9577 19.3151 12.65 19.32C12.4541 18.7759 12.5871 18.2438 12.765 17.71ZM12.88 18.17C12.88 18.2459 12.88 18.3218 12.88 18.4C13.1456 18.4 13.4113 18.4 13.685 18.4C13.4735 18.137 13.4735 18.137 13.1531 18.1556C13.0179 18.1628 13.0179 18.1628 12.88 18.17Z" fill="#1D1D26"/>
<path d="M3.67999 17.71C3.98359 17.71 4.28719 17.71 4.59999 17.71C4.63794 17.8239 4.67589 17.9377 4.71499 18.055C4.79089 18.055 4.86679 18.055 4.94499 18.055C4.90704 18.2448 4.86909 18.4345 4.82999 18.63C4.31766 18.6869 4.31766 18.6869 3.79499 18.745C4.13173 18.8573 4.36494 18.8695 4.71499 18.86C4.75294 19.0118 4.79089 19.1636 4.82999 19.32C4.41254 19.32 3.99509 19.32 3.56499 19.32C3.33934 18.8687 3.32551 18.5666 3.33499 18.055C3.44884 18.0171 3.56269 17.9791 3.67999 17.94C3.67999 17.8641 3.67999 17.7882 3.67999 17.71ZM3.79499 18.17C3.75704 18.2459 3.71909 18.3218 3.67999 18.4C3.98359 18.4 4.28719 18.4 4.59999 18.4C4.38852 18.137 4.38852 18.137 4.06811 18.1556C3.93291 18.1628 3.93291 18.1628 3.79499 18.17Z" fill="#1D1D26"/>
<path d="M12.19 17.825C12.3712 18.127 12.42 18.2702 12.42 18.63C12.1164 18.668 11.8128 18.7059 11.5 18.745C11.851 18.8578 12.0689 18.8578 12.42 18.745C12.4579 18.8209 12.4959 18.8968 12.535 18.975C12.3553 19.1547 12.3553 19.1547 12.075 19.32C11.6476 19.3125 11.3795 19.2969 11.0472 19.0181C10.8823 18.6495 10.902 18.3388 10.925 17.94C11.9095 17.6848 11.9095 17.6848 12.19 17.825ZM11.385 18.17C11.347 18.2459 11.3091 18.3218 11.27 18.4C11.5356 18.4 11.8013 18.4 12.075 18.4C12.037 18.3241 11.9991 18.2482 11.96 18.17C11.7702 18.17 11.5805 18.17 11.385 18.17Z" fill="#1D1D26"/>
<path d="M4.94495 17.71C5.40035 17.71 5.85575 17.71 6.32495 17.71C6.52706 18.2279 6.57713 18.6503 6.55495 19.205C6.4411 19.243 6.32725 19.2809 6.20995 19.32C6.172 19.0164 6.13405 18.7128 6.09495 18.4C5.9052 18.3621 5.71545 18.3241 5.51995 18.285C5.482 18.6266 5.44405 18.9681 5.40495 19.32C5.2911 19.358 5.17725 19.3959 5.05995 19.435C5.022 18.8658 4.98405 18.2965 4.94495 17.71Z" fill="#1D1D26"/>
<path d="M9.19995 17.71C9.48458 17.7669 9.48458 17.7669 9.77495 17.825C10.0442 17.7941 10.313 17.7571 10.58 17.71C10.7007 18.0722 10.7066 18.3297 10.7021 18.7091C10.7011 18.8234 10.7001 18.9377 10.699 19.0554C10.6977 19.1427 10.6963 19.2301 10.695 19.32C10.5811 19.358 10.4673 19.3959 10.35 19.435C10.312 19.0176 10.2741 18.6001 10.235 18.17C10.0832 18.208 9.93135 18.2459 9.77495 18.285C9.737 18.6266 9.69905 18.9681 9.65995 19.32C9.5461 19.32 9.43225 19.32 9.31495 19.32C9.277 18.7887 9.23905 18.2574 9.19995 17.71Z" fill="#1D1D26"/>
<path d="M7.475 5.17499C8.08396 5.11834 8.2801 5.25557 8.74 5.63499C8.96881 5.67985 9.19887 5.71917 9.43 5.74999C9.5059 5.82589 9.5818 5.90179 9.66 5.97999C9.28235 6.20478 9.04793 6.32804 8.60343 6.31061C8.26116 6.20413 8.17904 6.10903 7.935 5.86499C7.57753 5.78139 7.57753 5.78139 7.245 5.74999C7.3209 5.56024 7.3968 5.37049 7.475 5.17499Z" fill="#1D1D26"/>
<path d="M17.02 17.825C17.3469 18.1603 17.4138 18.4285 17.444 18.8887C17.4554 19.0426 17.4554 19.0426 17.467 19.1996C17.4713 19.2773 17.4756 19.355 17.48 19.435C17.3282 19.397 17.1764 19.3591 17.02 19.32C16.982 19.0164 16.9441 18.7128 16.905 18.4C16.6773 18.4 16.4496 18.4 16.215 18.4C16.215 18.7036 16.215 19.0072 16.215 19.32C16.1391 19.32 16.0632 19.32 15.985 19.32C15.985 18.8266 15.985 18.3333 15.985 17.825C16.351 17.642 16.6305 17.7362 17.02 17.825Z" fill="#1D1D26"/>
<path d="M12.5349 10.2494C12.7649 10.35 12.7649 10.35 12.9087 10.6447C12.9372 10.7372 12.9656 10.8297 12.9949 10.925C12.8597 10.9499 12.8597 10.9499 12.7218 10.9753C12.4241 11.026 12.4241 11.026 12.1899 11.155C12.114 11.1171 12.0381 11.0791 11.9599 11.04C11.922 11.1159 11.884 11.1918 11.8449 11.27C11.7311 11.2321 11.6172 11.1941 11.4999 11.155C11.462 11.2309 11.424 11.3068 11.3849 11.385C11.3351 11.3139 11.2853 11.2427 11.234 11.1694C11.0402 10.8997 11.0402 10.8997 10.6949 10.695C10.7993 10.6998 10.9037 10.7045 11.0112 10.7094C11.3777 10.6953 11.5319 10.6327 11.8449 10.465C11.9208 10.503 11.9967 10.5409 12.0749 10.58C12.0749 10.5041 12.0749 10.4282 12.0749 10.35C12.3049 10.235 12.3049 10.235 12.5349 10.2494Z" fill="#1D1D26"/>
<path d="M18.5293 12.9807C18.6384 12.9854 18.7475 12.9901 18.86 12.995C18.9722 13.3318 18.9844 13.565 18.975 13.915C18.8303 13.9364 18.6856 13.9577 18.5365 13.9797C18.4144 13.9977 18.4144 13.9977 18.2899 14.0161C18.055 14.03 18.055 14.03 17.71 13.915C17.9877 13.0023 17.9877 13.0023 18.5293 12.9807Z" fill="#1D1D26"/>
<path d="M17.71 6.555C17.6341 6.6309 17.5582 6.7068 17.48 6.785C17.48 6.89885 17.48 7.0127 17.48 7.13C17.2356 7.44625 17.2356 7.44625 16.905 7.705C16.5241 7.68344 16.5241 7.68344 16.215 7.59C16.215 7.5141 16.215 7.4382 16.215 7.36C16.1011 7.2841 15.9873 7.2082 15.87 7.13C15.9079 7.01615 15.9459 6.9023 15.985 6.785C16.2506 6.8609 16.5163 6.9368 16.79 7.015C16.8327 6.90471 16.8327 6.90471 16.8762 6.79219C17.02 6.555 17.02 6.555 17.25 6.46156C17.48 6.44 17.48 6.44 17.71 6.555Z" fill="#1D1D26"/>
<path d="M5.05997 8.04999C5.13587 8.08794 5.21177 8.12589 5.28997 8.16499C5.67127 8.32988 6.03042 8.43978 6.43997 8.50999C6.32612 8.56691 6.32612 8.56691 6.20997 8.62499C6.20997 8.77679 6.20997 8.92859 6.20997 9.08499C5.95122 9.16405 5.95122 9.16405 5.63497 9.19999C5.39778 9.05624 5.39778 9.05624 5.17497 8.85499C5.08958 8.79569 5.00419 8.73639 4.91622 8.6753C4.8166 8.59347 4.8166 8.59347 4.71497 8.50999C4.71497 8.43409 4.71497 8.35819 4.71497 8.27999C4.82882 8.20409 4.94267 8.12819 5.05997 8.04999Z" fill="#1D1D26"/>
<path d="M17.825 17.71C17.9926 17.7069 18.1604 17.7047 18.3281 17.7028C18.4215 17.7015 18.5149 17.7002 18.6111 17.6988C18.86 17.71 18.86 17.71 19.09 17.825C19.1259 18.1182 19.149 18.4004 19.1618 18.6947C19.1663 18.7765 19.1707 18.8582 19.1753 18.9425C19.1862 19.1449 19.1957 19.3475 19.205 19.55C19.1291 19.5121 19.0532 19.4741 18.975 19.435C18.9583 19.3473 18.9417 19.2595 18.9246 19.1691C18.8537 18.83 18.737 18.6607 18.515 18.4C18.2878 18.44 18.2878 18.44 18.055 18.515C18.017 18.5909 17.9791 18.6668 17.94 18.745C17.902 18.5932 17.8641 18.4414 17.825 18.285C17.9009 18.285 17.9768 18.285 18.055 18.285C17.9791 18.0953 17.9032 17.9055 17.825 17.71Z" fill="#1D1D26"/>
<path d="M7.58997 14.145C7.66587 14.145 7.74177 14.145 7.81997 14.145C7.81997 15.0558 7.81997 15.9666 7.81997 16.905C8.04767 16.905 8.27537 16.905 8.50997 16.905C8.50997 16.4117 8.50997 15.9183 8.50997 15.41C8.54792 15.41 8.58587 15.41 8.62497 15.41C8.63193 15.5153 8.6389 15.6205 8.64608 15.729C8.65571 15.8656 8.66535 16.0023 8.67528 16.1431C8.68462 16.2792 8.69396 16.4153 8.70358 16.5555C8.71821 16.8953 8.71821 16.8953 8.85497 17.135C8.93087 17.135 9.00677 17.135 9.08497 17.135C9.04702 17.2868 9.00907 17.4386 8.96997 17.595C8.85612 17.595 8.74227 17.595 8.62497 17.595C8.58702 17.4432 8.54907 17.2914 8.50997 17.135C8.20637 17.0971 7.90277 17.0591 7.58997 17.02C7.58997 16.0713 7.58997 15.1225 7.58997 14.145Z" fill="#1D1D26"/>
<path d="M11.385 7.59003C13.065 8.39889 13.065 8.39889 13.3059 9.08548C13.34 9.31503 13.34 9.31503 13.34 9.66003C11.8618 8.35626 11.8618 8.35626 11.385 7.59003Z" fill="#1D1D26"/>
<path d="M7.01501 17.71C7.43246 17.748 7.84991 17.7859 8.28001 17.825C8.28001 18.3184 8.28001 18.8117 8.28001 19.32C8.24206 19.32 8.20411 19.32 8.16501 19.32C8.16501 19.1303 8.16501 18.9405 8.16501 18.745C8.08911 18.745 8.01321 18.745 7.93501 18.745C7.85911 18.5932 7.78321 18.4414 7.70501 18.285C7.55321 18.285 7.40141 18.285 7.24501 18.285C7.20706 18.4368 7.16911 18.5886 7.13001 18.745C7.09206 18.4035 7.05411 18.0619 7.01501 17.71Z" fill="#1D1D26"/>
<path d="M17.3219 7.56124C17.595 7.70499 17.595 7.70499 17.71 8.04999C17.8239 8.22076 17.8239 8.22076 17.94 8.39499C17.978 8.47089 18.0159 8.54679 18.055 8.62499C17.9863 8.5989 17.9175 8.5728 17.8466 8.54592C17.7636 8.53406 17.6806 8.5222 17.595 8.50999C17.3913 8.66575 17.3913 8.66575 17.25 8.85499C17.2382 8.7862 17.2263 8.71742 17.2141 8.64655C17.1539 8.38727 17.1539 8.38727 16.9625 8.22249C16.7587 8.01864 16.7233 7.86987 16.675 7.58999C17.02 7.47499 17.02 7.47499 17.3219 7.56124Z" fill="#1D1D26"/>
<path d="M15.065 17.825C15.065 17.9009 15.065 17.9768 15.065 18.055C14.9891 18.055 14.9132 18.055 14.835 18.055C14.6506 18.4584 14.5797 18.7615 14.605 19.205C14.4912 19.243 14.3773 19.2809 14.26 19.32C14.26 18.8267 14.26 18.3333 14.26 17.825C14.5667 17.6717 14.7392 17.7478 15.065 17.825Z" fill="#1D1D26"/>
<path d="M6.21 10.235C6.2859 10.2729 6.3618 10.3109 6.44 10.35C6.44 10.4259 6.44 10.5018 6.44 10.58C6.55385 10.542 6.6677 10.5041 6.785 10.465C6.82295 10.6168 6.8609 10.7686 6.9 10.925C6.78615 11.0009 6.6723 11.0768 6.555 11.155C6.51705 11.2309 6.4791 11.3068 6.44 11.385C6.32615 11.4229 6.2123 11.4609 6.095 11.5C6.05705 11.3861 6.0191 11.2723 5.98 11.155C5.9041 11.155 5.8282 11.155 5.75 11.155C5.865 10.925 5.865 10.925 6.095 10.58C6.13295 10.4661 6.1709 10.3523 6.21 10.235Z" fill="#1D1D26"/>
<path d="M10.58 4.37C10.6559 4.40795 10.7318 4.4459 10.81 4.485C10.81 4.5609 10.81 4.6368 10.81 4.715C10.8859 4.715 10.9618 4.715 11.04 4.715C11.04 4.6391 11.04 4.5632 11.04 4.485C11.1159 4.52295 11.1918 4.5609 11.27 4.6C11.2155 5.07916 11.1496 5.39681 10.81 5.75C10.7341 5.75 10.6582 5.75 10.58 5.75C10.5823 5.62429 10.5847 5.49858 10.5872 5.36906C10.6013 4.95145 10.6013 4.95145 10.465 4.6C10.5029 4.5241 10.5409 4.4482 10.58 4.37Z" fill="#1D1D26"/>
<path d="M3.44996 18.63C3.60295 18.6869 3.60295 18.6869 3.75902 18.745C4.10652 18.8499 4.35659 18.8811 4.71496 18.86C4.75291 19.0118 4.79086 19.1636 4.82996 19.32C4.41251 19.32 3.99506 19.32 3.56496 19.32C3.48829 19.1667 3.41163 19.0133 3.33496 18.86C3.37291 18.7841 3.41086 18.7082 3.44996 18.63Z" fill="#1D1D26"/>
<path d="M18.4 9.65997C18.6277 9.73587 18.8554 9.81177 19.09 9.88997C19.128 10.1177 19.1659 10.3454 19.205 10.58C18.975 10.695 18.975 10.695 18.515 10.695C18.4391 10.657 18.3632 10.6191 18.285 10.58C18.285 10.5041 18.285 10.4282 18.285 10.35C18.3609 10.35 18.4368 10.35 18.515 10.35C18.4771 10.1223 18.4391 9.89457 18.4 9.65997Z" fill="#1D1D26"/>
<path d="M8.625 17.825C8.73885 17.825 8.8527 17.825 8.97 17.825C8.97 18.3184 8.97 18.8117 8.97 19.32C8.85615 19.32 8.7423 19.32 8.625 19.32C8.625 18.8267 8.625 18.3333 8.625 17.825Z" fill="#1D1D26"/>
<path d="M12.19 17.825C12.228 17.9389 12.2659 18.0527 12.305 18.17C12.0767 18.1962 11.8483 18.2224 11.62 18.2486C11.3627 18.2818 11.3627 18.2818 11.04 18.4C11.0021 18.2482 10.9641 18.0964 10.925 17.94C11.9096 17.6848 11.9096 17.6848 12.19 17.825Z" fill="#1D1D26"/>
<path d="M13.455 18.745C13.6068 18.8209 13.7586 18.8968 13.915 18.975C13.8771 19.1268 13.8391 19.2786 13.8 19.435C12.9457 19.32 12.9457 19.32 12.535 19.205C12.535 19.1291 12.535 19.0532 12.535 18.975C12.8386 18.937 13.1422 18.8991 13.455 18.86C13.455 18.822 13.455 18.7841 13.455 18.745Z" fill="#1D1D26"/>
<path d="M12.535 10.2494C12.765 10.35 12.765 10.35 12.9087 10.6447C12.9372 10.7372 12.9657 10.8297 12.995 10.925C12.4342 10.9651 12.1014 10.858 11.615 10.58C11.6909 10.5421 11.7668 10.5041 11.845 10.465C11.9209 10.503 11.9968 10.5409 12.075 10.58C12.075 10.5041 12.075 10.4282 12.075 10.35C12.305 10.235 12.305 10.235 12.535 10.2494Z" fill="#1D1D26"/>
<path d="M7.475 5.17503C7.80562 5.16065 7.80562 5.16065 8.165 5.17503C8.2409 5.25093 8.3168 5.32683 8.395 5.40503C8.165 5.75003 8.165 5.75003 7.82 5.84346C7.70615 5.85058 7.5923 5.8577 7.475 5.86503C7.3991 5.78913 7.3232 5.71323 7.245 5.63503C7.3209 5.48323 7.3968 5.33143 7.475 5.17503Z" fill="#1D1D26"/>
<path d="M12.19 18.745C12.3039 18.7829 12.4177 18.8209 12.535 18.86C12.3553 19.0972 12.3553 19.0972 12.075 19.32C11.6438 19.2912 11.6438 19.2912 11.27 19.205C11.2321 19.0911 11.1941 18.9773 11.155 18.86C11.3045 18.8624 11.4539 18.8647 11.6078 18.8672C11.7636 18.8697 11.9195 18.8682 12.075 18.86C12.113 18.822 12.1509 18.7841 12.19 18.745Z" fill="#1D1D26"/>
<path d="M15.985 17.825C16.2127 17.9389 16.2127 17.9389 16.445 18.055C16.445 18.1689 16.445 18.2827 16.445 18.4C16.3691 18.4 16.2932 18.4 16.215 18.4C16.215 18.7036 16.215 19.0072 16.215 19.32C16.1391 19.32 16.0632 19.32 15.985 19.32C15.985 18.8267 15.985 18.3333 15.985 17.825Z" fill="#1D1D26"/>
<path d="M12.765 4.37C13.0112 4.49313 13.1467 4.63676 13.34 4.83C13.4159 4.86795 13.4918 4.9059 13.57 4.945C13.0381 5.29 13.0381 5.29 12.65 5.29C12.5429 4.99033 12.5178 4.87117 12.6428 4.57125C12.6831 4.50483 12.7234 4.43842 12.765 4.37Z" fill="#1D1D26"/>
<path d="M17.825 17.94C17.9389 17.978 18.0527 18.0159 18.17 18.055C18.0941 18.1309 18.0182 18.2068 17.94 18.285C17.9592 18.5246 17.9592 18.5246 18.055 18.745C18.1309 18.783 18.2068 18.8209 18.285 18.86C18.285 18.9359 18.285 19.0118 18.285 19.09C17.7244 18.9894 17.7244 18.9894 17.595 18.86C17.5735 18.5222 17.5735 18.5222 17.595 18.17C17.6709 18.0941 17.7468 18.0182 17.825 17.94Z" fill="#1D1D26"/>
<path d="M8.50998 15.41C8.54793 15.41 8.58588 15.41 8.62498 15.41C8.63195 15.5152 8.63891 15.6205 8.64609 15.7289C8.65573 15.8656 8.66536 16.0023 8.67529 16.1431C8.68463 16.2792 8.69397 16.4153 8.70359 16.5555C8.71823 16.8952 8.71823 16.8952 8.85498 17.135C8.93088 17.135 9.00678 17.135 9.08498 17.135C9.04703 17.2868 9.00908 17.4386 8.96998 17.595C8.85613 17.595 8.74228 17.595 8.62498 17.595C8.50891 17.117 8.4982 16.67 8.50279 16.179C8.50383 16.0348 8.50487 15.8906 8.50594 15.7419C8.50794 15.5776 8.50794 15.5776 8.50998 15.41Z" fill="#1D1D26"/>
<path d="M3.67996 17.71C3.98356 17.71 4.28716 17.71 4.59996 17.71C4.42919 17.8808 4.42919 17.8808 4.25496 18.055C4.29291 18.1309 4.33086 18.2068 4.36996 18.285C4.02496 18.285 3.67996 18.285 3.33496 18.285C3.44996 18.055 3.44996 18.055 3.67996 17.825C3.67996 17.7871 3.67996 17.7491 3.67996 17.71Z" fill="#1D1D26"/>
<path d="M17.825 5.86499C17.9009 5.90294 17.9768 5.94089 18.055 5.97999C18.055 6.33969 18.0154 6.66289 17.94 7.01499C17.7028 7.1803 17.7028 7.1803 17.48 7.24499C17.5179 7.16909 17.5559 7.09319 17.595 7.01499C17.5191 6.93909 17.4432 6.86319 17.365 6.78499C17.5183 6.47832 17.6717 6.17166 17.825 5.86499Z" fill="#1D1D26"/>
<path d="M5.86503 8.39502C6.05478 8.43297 6.24453 8.47092 6.44003 8.51002C6.32618 8.56694 6.32618 8.56694 6.21003 8.62502C6.21003 8.77682 6.21003 8.92862 6.21003 9.08502C5.9369 9.15689 5.9369 9.15689 5.63503 9.20002C5.55913 9.12412 5.48323 9.04822 5.40503 8.97002C5.51888 8.93207 5.63273 8.89412 5.75003 8.85502C5.83435 8.62328 5.83435 8.62328 5.86503 8.39502Z" fill="#1D1D26"/>
<path d="M17.48 8.39502C17.8215 8.62272 17.8215 8.62272 18.17 8.85502C18.132 8.93092 18.0941 9.00682 18.055 9.08502C18.0929 9.19887 18.1309 9.31272 18.17 9.43002C18.132 9.50592 18.0941 9.58182 18.055 9.66002C17.9791 9.66002 17.9032 9.66002 17.825 9.66002C17.8036 9.55684 17.8036 9.55684 17.7819 9.45158C17.7152 9.16985 17.7152 9.16985 17.48 8.85502C17.48 8.70322 17.48 8.55142 17.48 8.39502Z" fill="#1D1D26"/>
<path d="M15.41 6.32501C15.7506 6.39548 15.9138 6.46919 16.215 6.67001C16.2909 6.70796 16.3668 6.74591 16.445 6.78501C16.3715 6.79687 16.298 6.80873 16.2222 6.82095C16.1439 6.84704 16.0657 6.87313 15.985 6.90001C15.9471 7.01386 15.9091 7.12771 15.87 7.24501C15.7182 7.16911 15.5664 7.09321 15.41 7.01501C15.448 6.93911 15.4859 6.86321 15.525 6.78501C15.4791 6.54372 15.4791 6.54372 15.41 6.32501Z" fill="#1D1D26"/>
<path d="M18.86 19.09C18.9318 19.3057 18.9318 19.3057 18.975 19.55C18.745 19.78 18.745 19.78 18.3281 19.7944C18.2 19.7897 18.0719 19.7849 17.94 19.78C17.902 19.6662 17.8641 19.5523 17.825 19.435C18.1665 19.492 18.1665 19.492 18.515 19.55C18.5529 19.4741 18.5909 19.3982 18.63 19.32C18.7059 19.2441 18.7818 19.1682 18.86 19.09Z" fill="#1D1D26"/>
<path d="M6.32496 18.055C6.60435 18.4741 6.57357 18.7119 6.55496 19.205C6.44111 19.2429 6.32726 19.2809 6.20996 19.32C6.20686 19.1523 6.20463 18.9846 6.20277 18.8169C6.20144 18.7235 6.20011 18.6301 6.19873 18.5339C6.20996 18.285 6.20996 18.285 6.32496 18.055Z" fill="#1D1D26"/>
<path d="M15.295 17.825C15.3709 17.825 15.4468 17.825 15.525 17.825C15.525 18.3184 15.525 18.8117 15.525 19.32C15.4491 19.32 15.3732 19.32 15.295 19.32C15.295 18.8267 15.295 18.3333 15.295 17.825Z" fill="#1D1D26"/>
<path d="M5.40503 17.71C5.70863 17.71 6.01223 17.71 6.32503 17.71C6.32503 17.8998 6.32503 18.0895 6.32503 18.285C6.21118 18.323 6.09733 18.3609 5.98003 18.4C5.86618 18.3241 5.75233 18.2482 5.63503 18.17C5.67298 18.1321 5.71093 18.0941 5.75003 18.055C5.63618 17.9412 5.52233 17.8273 5.40503 17.71Z" fill="#1D1D26"/>
<path d="M5.98001 4.02502C6.32156 4.08195 6.32156 4.08195 6.67001 4.14002C6.59885 4.14951 6.5277 4.159 6.45438 4.16877C6.19423 4.23194 6.19423 4.23194 6.08063 4.46346C6.04743 4.54648 6.01422 4.62949 5.98001 4.71502C5.90334 4.86836 5.82668 5.02169 5.75001 5.17502C5.67095 4.98096 5.67095 4.98096 5.63501 4.71502C5.80032 4.40596 5.80032 4.40596 5.98001 4.14002C5.98001 4.10207 5.98001 4.06412 5.98001 4.02502Z" fill="#1D1D26"/>
<path d="M6.90004 18.055C6.93799 18.055 6.97594 18.055 7.01504 18.055C7.05062 18.1831 7.0862 18.3112 7.12286 18.4431C7.22472 18.8364 7.22472 18.8364 7.36004 19.09C7.14442 19.0684 7.14442 19.0684 6.90004 18.975C6.74192 18.7019 6.74192 18.7019 6.67004 18.4C6.74594 18.2861 6.82184 18.1723 6.90004 18.055Z" fill="#1D1D26"/>
<path d="M14.26 18.285C14.3359 18.285 14.4118 18.285 14.49 18.285C14.528 18.5886 14.5659 18.8922 14.605 19.205C14.4912 19.2429 14.3773 19.2809 14.26 19.32C14.26 18.9784 14.26 18.6369 14.26 18.285Z" fill="#1D1D26"/>
<path d="M15.87 6.78497C16.4392 6.89882 16.4392 6.89882 17.02 7.01497C16.982 7.09087 16.9441 7.16677 16.905 7.24497C16.5744 7.33122 16.5744 7.33122 16.215 7.35997C16.1011 7.28407 15.9873 7.20817 15.87 7.12997C15.87 7.01612 15.87 6.90227 15.87 6.78497Z" fill="#1D1D26"/>
<path d="M12.765 17.71C13.1445 17.748 13.524 17.7859 13.915 17.825C13.8391 17.9768 13.7632 18.1286 13.685 18.285C13.3814 18.1332 13.0778 17.9814 12.765 17.825C12.765 17.7871 12.765 17.7491 12.765 17.71Z" fill="#1D1D26"/>
<path d="M11.04 4.48499C11.1159 4.52294 11.1918 4.56089 11.27 4.59999C11.1838 5.26124 11.1838 5.26124 10.925 5.51999C10.81 5.40499 10.81 5.40499 10.8029 5.0528C10.8052 4.94132 10.8076 4.82984 10.81 4.71499C10.8859 4.71499 10.9618 4.71499 11.04 4.71499C11.04 4.63909 11.04 4.56319 11.04 4.48499Z" fill="#1D1D26"/>
<path d="M12.075 4.02502C12.6356 4.34127 12.6356 4.34127 12.765 4.60002C12.727 4.67592 12.6891 4.75182 12.65 4.83002C12.305 4.71502 12.305 4.71502 12.075 4.37002C12.075 4.25617 12.075 4.14232 12.075 4.02502Z" fill="#1D1D26"/>
<path d="M13.685 18.17C13.7609 18.17 13.8368 18.17 13.915 18.17C13.9909 18.3597 14.0668 18.5495 14.145 18.745C13.7276 18.707 13.3101 18.6691 12.88 18.63C12.88 18.592 12.88 18.5541 12.88 18.515C13.1457 18.515 13.4113 18.515 13.685 18.515C13.685 18.4011 13.685 18.2873 13.685 18.17Z" fill="#1D1D26"/>
<path d="M16.215 17.71C16.4806 17.748 16.7463 17.7859 17.02 17.825C16.982 18.0148 16.9441 18.2045 16.905 18.4C16.6893 18.3785 16.6893 18.3785 16.445 18.285C16.3012 17.9903 16.3012 17.9903 16.215 17.71Z" fill="#1D1D26"/>
<path d="M9.20001 5.75C9.35181 5.8259 9.50361 5.9018 9.66001 5.98C9.03724 6.33385 9.03724 6.33385 8.69688 6.28906C8.63522 6.26297 8.57355 6.23688 8.51001 6.21C8.69976 6.17205 8.88951 6.1341 9.08501 6.095C9.12296 5.98115 9.16091 5.8673 9.20001 5.75Z" fill="#1D1D26"/>
<path d="M11.04 17.825C11.2327 17.8579 11.4246 17.8961 11.615 17.94C11.4569 18.17 11.4569 18.17 11.27 18.4C11.1941 18.4 11.1182 18.4 11.04 18.4C10.9754 18.1772 10.9754 18.1772 10.925 17.94C10.963 17.9021 11.0009 17.8641 11.04 17.825Z" fill="#1D1D26"/>
<path d="M5.52006 8.39502C5.59596 8.43297 5.67186 8.47092 5.75006 8.51002C5.75006 8.62387 5.75006 8.73772 5.75006 8.85502C5.56031 8.89297 5.37056 8.93092 5.17506 8.97002C5.13711 8.85617 5.09916 8.74232 5.06006 8.62502C5.27568 8.50283 5.27568 8.50283 5.52006 8.39502Z" fill="#1D1D26"/>
<path d="M15.2949 17.25C15.4088 17.2879 15.5226 17.3259 15.6399 17.365C15.602 17.4409 15.564 17.5168 15.5249 17.595C15.449 17.595 15.3731 17.595 15.2949 17.595C15.2949 17.6709 15.2949 17.7468 15.2949 17.825C15.219 17.825 15.1431 17.825 15.0649 17.825C15.1408 17.6352 15.2167 17.4455 15.2949 17.25Z" fill="#1D1D26"/>
<path d="M12.65 9.20001C12.8777 9.31386 12.8777 9.31386 13.11 9.43001C12.9962 9.43001 12.8823 9.43001 12.765 9.43001C12.7271 9.35411 12.6891 9.27821 12.65 9.20001Z" fill="#1D1D26"/>
<path d="M18.975 19.55C18.975 19.6638 18.975 19.7777 18.975 19.895C18.8991 19.857 18.8232 19.8191 18.745 19.78C18.8209 19.7041 18.8968 19.6282 18.975 19.55Z" fill="#1D1D26"/>
<path d="M4.48499 16.56C4.59884 16.6738 4.71269 16.7877 4.82999 16.905C4.71614 16.867 4.60229 16.8291 4.48499 16.79C4.48499 16.7141 4.48499 16.6382 4.48499 16.56Z" fill="#1D1D26"/>
<path d="M10.9251 3.10498C11.001 3.14293 11.0769 3.18088 11.1551 3.21998C11.0412 3.29588 10.9274 3.37178 10.8101 3.44998C10.848 3.33613 10.886 3.22228 10.9251 3.10498Z" fill="#1D1D26"/>
<path d="M6.78503 18.975C6.86093 19.0509 6.93683 19.1268 7.01503 19.205C6.90118 19.2619 6.90118 19.2619 6.78503 19.32C6.78503 19.2061 6.78503 19.0923 6.78503 18.975Z" fill="#1D1D26"/>
<path d="M15.755 11.27C15.8689 11.308 15.9827 11.3459 16.1 11.385C15.9862 11.385 15.8723 11.385 15.755 11.385C15.755 11.3471 15.755 11.3091 15.755 11.27Z" fill="#1D1D26"/>
<path d="M12.3051 7.935C12.4189 7.97295 12.5328 8.0109 12.6501 8.05C12.5362 8.05 12.4224 8.05 12.3051 8.05C12.3051 8.01205 12.3051 7.9741 12.3051 7.935Z" fill="#1D1D26"/>
<path d="M12.3049 19.09C12.3429 19.1659 12.3808 19.2418 12.4199 19.32C12.344 19.2821 12.2681 19.2441 12.1899 19.205C12.2279 19.1671 12.2658 19.1291 12.3049 19.09Z" fill="#1D1D26"/>
<path d="M9.89001 18.17C10.235 18.285 10.235 18.285 10.235 18.285L9.89001 18.17Z" fill="#1D1D26"/>
<path d="M6.78503 17.825C6.89888 17.8819 6.89888 17.8819 7.01503 17.94C6.90118 17.9969 6.90118 17.9969 6.78503 18.055C6.78503 17.9791 6.78503 17.9032 6.78503 17.825Z" fill="#1D1D26"/>
<path d="M15.525 17.595C15.6389 17.6519 15.6389 17.6519 15.755 17.71C15.6412 17.7669 15.6412 17.7669 15.525 17.825C15.525 17.7491 15.525 17.6732 15.525 17.595Z" fill="#1D1D26"/>
<path d="M12.88 16.56C12.9559 16.6359 13.0318 16.7118 13.11 16.79C13.0341 16.79 12.9582 16.79 12.88 16.79C12.88 16.7141 12.88 16.6382 12.88 16.56Z" fill="#1D1D26"/>
<path d="M19.3199 16.445C19.3958 16.5209 19.4717 16.5968 19.5499 16.675C19.474 16.675 19.3981 16.675 19.3199 16.675C19.3199 16.5991 19.3199 16.5232 19.3199 16.445Z" fill="#1D1D26"/>
<path d="M16.905 15.18C17.0189 15.2369 17.0189 15.2369 17.135 15.295C17.0212 15.3519 17.0212 15.3519 16.905 15.41C16.905 15.3341 16.905 15.2582 16.905 15.18Z" fill="#1D1D26"/>
<path d="M17.825 12.995C17.9388 13.0519 17.9388 13.0519 18.055 13.11C17.9411 13.1669 17.9411 13.1669 17.825 13.225C17.825 13.1491 17.825 13.0732 17.825 12.995Z" fill="#1D1D26"/>
<path d="M5.06006 12.305C5.13596 12.3809 5.21186 12.4568 5.29006 12.535C5.21416 12.535 5.13826 12.535 5.06006 12.535C5.06006 12.4591 5.06006 12.3832 5.06006 12.305Z" fill="#1D1D26"/>
<path d="M5.97999 12.305C6.01794 12.3809 6.05589 12.4568 6.09499 12.535C6.01909 12.497 5.94319 12.4591 5.86499 12.42C5.90294 12.382 5.94089 12.3441 5.97999 12.305Z" fill="#1D1D26"/>
<path d="M10.465 10.465C10.5409 10.465 10.6168 10.465 10.695 10.465C10.657 10.5409 10.6191 10.6168 10.58 10.695C10.542 10.6191 10.5041 10.5432 10.465 10.465Z" fill="#1D1D26"/>
<path d="M5.75 5.40503C5.8259 5.48093 5.9018 5.55683 5.98 5.63503C5.9041 5.63503 5.8282 5.63503 5.75 5.63503C5.75 5.55913 5.75 5.48323 5.75 5.40503Z" fill="#1D1D26"/>
<path d="M17.71 19.78C17.94 19.895 17.94 19.895 17.94 19.895L17.71 19.78Z" fill="#1D1D26"/>
<path d="M7.245 18.745C7.475 18.86 7.475 18.86 7.475 18.86L7.245 18.745Z" fill="#1D1D26"/>
<path d="M19.78 16.905C20.01 17.02 20.01 17.02 20.01 17.02L19.78 16.905Z" fill="#1D1D26"/>
<path d="M13.6851 15.985C13.9151 16.1 13.9151 16.1 13.9151 16.1L13.6851 15.985Z" fill="#1D1D26"/>
<path d="M20.355 15.065C20.585 15.18 20.585 15.18 20.585 15.18L20.355 15.065Z" fill="#1D1D26"/>
<path d="M14.26 15.065C14.49 15.18 14.49 15.18 14.49 15.18L14.26 15.065Z" fill="#1D1D26"/>
<path d="M13.6851 15.065C13.9151 15.18 13.9151 15.18 13.9151 15.18L13.6851 15.065Z" fill="#1D1D26"/>
<path d="M19.665 14.26C19.895 14.375 19.895 14.375 19.895 14.375L19.665 14.26Z" fill="#1D1D26"/>
<path d="M14.605 14.145C14.835 14.26 14.835 14.26 14.835 14.26L14.605 14.145Z" fill="#1D1D26"/>
<path d="M8.73999 10.81C8.96999 10.925 8.96999 10.925 8.96999 10.925L8.73999 10.81Z" fill="#1D1D26"/>
<path d="M6.90002 10.58C7.13002 10.695 7.13002 10.695 7.13002 10.695L6.90002 10.58Z" fill="#1D1D26"/>
<path d="M8.05005 10.35C8.28005 10.465 8.28005 10.465 8.28005 10.465L8.05005 10.35Z" fill="#1D1D26"/>
<path d="M9.19995 10.235C9.42995 10.35 9.42995 10.35 9.42995 10.35L9.19995 10.235Z" fill="#1D1D26"/>
<path d="M5.86499 9.20001C6.09499 9.31501 6.09499 9.31501 6.09499 9.31501L5.86499 9.20001Z" fill="#1D1D26"/>
<path d="M4.82996 8.73999C5.05996 8.85499 5.05996 8.85499 5.05996 8.85499L4.82996 8.73999Z" fill="#1D1D26"/>
<path d="M4.59998 8.625C4.82998 8.74 4.82998 8.74 4.82998 8.74L4.59998 8.625Z" fill="#1D1D26"/>
<path d="M9.54504 7.59003C9.77504 7.70503 9.77504 7.70503 9.77504 7.70503L9.54504 7.59003Z" fill="#1D1D26"/>
<path d="M15.985 7.35999C16.215 7.47499 16.215 7.47499 16.215 7.47499L15.985 7.35999Z" fill="#1D1D26"/>
<path d="M15.1801 6.90002C15.4101 7.01502 15.4101 7.01502 15.4101 7.01502L15.1801 6.90002Z" fill="#1D1D26"/>
<path d="M16.4449 6.78497C16.6749 6.89997 16.6749 6.89997 16.6749 6.89997L16.4449 6.78497Z" fill="#1D1D26"/>
<path d="M14.605 6.55499C14.835 6.66999 14.835 6.66999 14.835 6.66999L14.605 6.55499Z" fill="#1D1D26"/>
<path d="M8.73999 6.32501C8.96999 6.44001 8.96999 6.44001 8.96999 6.44001L8.73999 6.32501Z" fill="#1D1D26"/>
<path d="M7.93506 5.97998C8.16506 6.09498 8.16506 6.09498 8.16506 6.09498L7.93506 5.97998Z" fill="#1D1D26"/>
<path d="M7.70496 5.86499C7.93496 5.97999 7.93496 5.97999 7.93496 5.97999L7.70496 5.86499Z" fill="#1D1D26"/>
<path d="M6.90002 5.52002C7.13002 5.63502 7.13002 5.63502 7.13002 5.63502L6.90002 5.52002Z" fill="#1D1D26"/>
<path d="M12.1899 3.90997C12.4199 4.02497 12.4199 4.02497 12.4199 4.02497L12.1899 3.90997Z" fill="#1D1D26"/>
</svg>
