<svg width="49" height="23" viewBox="0 0 49 23" fill="none" xmlns="http://www.w3.org/2000/svg">
<path d="M13.69 13.6957V0.922094C13.69 0.899419 13.69 0.876745 13.6825 0.85407C13.6749 0.831395 13.6598 0.816278 13.6446 0.801162C13.6295 0.786045 13.6068 0.778486 13.5841 0.770928C13.5614 0.763369 13.5387 0.763369 13.516 0.770928C12.6154 0.906978 11.7149 1.05814 10.8143 1.23199C10.7689 1.23954 10.7235 1.26978 10.6932 1.30757C10.6629 1.34536 10.6402 1.39071 10.6402 1.44362V5.78966C9.15695 4.58033 7.68123 3.43146 6.20551 2.3355C6.19038 2.32794 6.16767 2.32039 6.14497 2.32039C6.12227 2.32039 6.09956 2.32794 6.08443 2.3355C4.88115 2.66051 3.68544 2.97796 2.4973 3.39367C2.46703 3.40123 2.42919 3.4239 2.40649 3.44658C2.38378 3.46925 2.36108 3.49949 2.34594 3.53728C2.33081 3.55995 2.31567 3.59019 2.31567 3.62798C2.31567 3.65821 2.32324 3.68844 2.34594 3.71868L3.25408 4.6937V16.1068C3.25408 16.1295 3.25408 16.1446 3.26165 16.1672C3.26921 16.1899 3.28435 16.205 3.29949 16.2126C3.31462 16.2277 3.33732 16.2353 3.36003 16.2353C3.38273 16.2353 3.39787 16.2353 3.42057 16.2277C4.29843 15.9556 5.18386 15.7062 6.06929 15.4643C6.1147 15.4492 6.16011 15.419 6.19038 15.3812C6.22065 15.3434 6.23578 15.2905 6.24335 15.2451V7.60366C7.69636 8.69962 9.15695 9.84092 10.6251 11.02V14.2474C10.6251 14.2701 10.6327 14.2928 10.6402 14.3079C10.6478 14.3306 10.6629 14.3457 10.6781 14.3608C10.6932 14.3759 10.7159 14.3835 10.7386 14.391C10.7613 14.3986 10.784 14.3986 10.7992 14.391C11.6997 14.2172 12.6003 14.0585 13.5009 13.93C13.5538 13.9224 13.6068 13.8997 13.6371 13.8544C13.6749 13.809 13.69 13.7561 13.69 13.6957ZM4.76007 14.9504L4.00329 15.1771L4.38168 14.6783L4.76007 14.187L5.13846 14.4666L5.51684 14.7463L4.76007 14.9504ZM12.1689 13.2648L11.397 13.4009L11.783 12.9474L12.1689 12.4939L12.5549 12.8189L12.9484 13.1439L12.1689 13.2648Z" fill="#1D1D26"/>
<path d="M18.0114 8.17056V13.1817C18.0114 13.2044 18.0114 13.2271 18.019 13.2498C18.0266 13.2724 18.0417 13.2875 18.0568 13.3027C18.072 13.3178 18.0947 13.3253 18.1174 13.3329C18.1401 13.3405 18.1628 13.3405 18.1855 13.3329C19.1012 13.2649 20.0093 13.2044 20.9099 13.1591C20.9553 13.1591 21.0007 13.1364 21.0385 13.1061C21.0688 13.0759 21.0915 13.023 21.0915 12.9777V7.97404C22.3402 5.35886 23.5889 2.78147 24.8451 0.249425C24.8603 0.22675 24.8678 0.196516 24.8678 0.166283C24.8678 0.13605 24.8603 0.105817 24.8451 0.0831421C24.83 0.0604671 24.8073 0.0377919 24.7846 0.0226752C24.7619 0.00755856 24.7316 0 24.7013 0C23.6873 0 22.6656 0 21.644 0.0377917C21.6137 0.0377917 21.5759 0.0529078 21.5532 0.0680245C21.5229 0.0831412 21.5002 0.113374 21.485 0.143608L19.5553 4.21755C18.912 2.93263 18.2687 1.64016 17.6255 0.355241C17.6103 0.325008 17.5876 0.302333 17.5574 0.287217C17.5271 0.2721 17.4968 0.264542 17.4666 0.2721C16.4525 0.370359 15.4384 0.483733 14.4243 0.627342C14.394 0.6349 14.3638 0.642458 14.3411 0.657574C14.3184 0.672691 14.2957 0.702925 14.2805 0.7256C14.2654 0.748275 14.2578 0.778508 14.2578 0.808741C14.2578 0.838974 14.2654 0.869208 14.2805 0.891883C15.5141 3.29543 16.7627 5.72166 18.0114 8.17056ZM19.1617 12.0329L19.5477 11.6172C19.6839 11.7305 19.8126 11.859 19.9412 11.98L20.3347 12.3428L19.5477 12.3881L18.7682 12.4486C18.9196 12.3125 19.0255 12.1765 19.1617 12.0329Z" fill="#1D1D26"/>
<path d="M30.6571 13.416C31.6031 13.5067 32.5491 13.6125 33.4875 13.741C33.5102 13.7486 33.5405 13.741 33.5632 13.7335C33.5859 13.7259 33.6086 13.7108 33.6237 13.6881C33.6388 13.6654 33.6388 13.6428 33.6388 13.6125C33.6388 13.5898 33.6313 13.5596 33.6237 13.5369C32.4507 9.12288 31.2701 4.73148 30.082 0.362769C30.0744 0.324977 30.0517 0.294744 30.0214 0.26451C29.9912 0.241835 29.9533 0.226718 29.9155 0.21916C28.856 0.136018 27.7965 0.067994 26.737 0.022644C26.6992 0.022644 26.6613 0.0302019 26.6311 0.0528769C26.6008 0.0755519 26.5781 0.105785 26.5705 0.143577C25.39 4.35357 24.2018 8.60135 23.0212 12.8718C23.0061 12.8945 23.0061 12.9247 23.0061 12.9474C23.0061 12.9776 23.0137 13.0003 23.0212 13.023C23.0364 13.0456 23.0591 13.0608 23.0818 13.0683C23.1045 13.0759 23.1348 13.0834 23.1575 13.0834C24.111 13.0834 25.0872 13.0834 26.0105 13.0834C26.0483 13.0834 26.0862 13.0759 26.1165 13.0532C26.1467 13.0305 26.1694 13.0003 26.177 12.9625C26.8884 10.3851 27.5922 7.83796 28.3035 5.30592C29.0149 7.93622 29.7187 10.5741 30.4301 13.227C30.4301 13.2573 30.4452 13.28 30.4528 13.3026C30.4679 13.3253 30.4831 13.348 30.5058 13.3631C30.5285 13.3782 30.5512 13.3933 30.5814 13.3933C30.6042 13.4236 30.6344 13.4236 30.6571 13.416ZM31.4972 12.2671L31.8907 11.927L32.2842 12.3578L32.6702 12.7887L31.8907 12.6904L31.1415 12.6073L31.4972 12.2671ZM24.8451 12.2671H24.0656L24.4591 11.8817L24.8451 11.5038L25.2386 11.8968C25.3748 12.0253 25.5035 12.1538 25.6321 12.2898L24.8451 12.2671Z" fill="#1D1D26"/>
<path d="M41.7135 15.1922C41.7135 15.2376 41.7362 15.2905 41.7665 15.3283C41.7968 15.3661 41.8346 15.3963 41.8876 15.4114C42.7806 15.6457 43.666 15.8951 44.5439 16.1672C44.5666 16.1748 44.5817 16.1748 44.6044 16.1748C44.6271 16.1748 44.6423 16.1672 44.665 16.1521C44.6801 16.137 44.6952 16.1219 44.7028 16.1068C44.7104 16.0917 44.7179 16.069 44.7104 16.0463V4.76173L45.7169 3.68844C45.732 3.66577 45.7472 3.63553 45.7472 3.59774C45.7472 3.56751 45.7396 3.53728 45.7169 3.50704C45.7018 3.47681 45.6866 3.44658 45.6564 3.41634C45.6336 3.39367 45.6034 3.37099 45.5655 3.36343C44.3471 2.96284 43.1136 2.6076 41.8725 2.28259C41.8498 2.27503 41.8346 2.27504 41.8119 2.27504C41.7892 2.27504 41.7741 2.29015 41.7589 2.29771C41.7438 2.31283 41.7287 2.32794 41.7211 2.34306C41.7135 2.35818 41.706 2.38085 41.706 2.40353V6.76468C40.2303 4.89022 38.7545 3.0611 37.2713 1.29245C37.241 1.25466 37.1956 1.23198 37.1502 1.22443C36.2496 1.05058 35.349 0.899419 34.4409 0.763369C34.4182 0.755811 34.3955 0.763369 34.3728 0.763369C34.3501 0.770927 34.335 0.778485 34.3122 0.793602C34.2971 0.808719 34.282 0.823835 34.2744 0.84651C34.2668 0.869185 34.2593 0.884302 34.2593 0.906977V13.6806C34.2593 13.7259 34.2744 13.7788 34.3122 13.809C34.3425 13.8468 34.3879 13.8695 34.4333 13.8771C35.3415 14.0131 36.242 14.1643 37.135 14.3381C37.1577 14.3457 37.1804 14.3457 37.1956 14.3381C37.2183 14.3306 37.2334 14.323 37.2561 14.3079C37.2713 14.2928 37.2864 14.2777 37.294 14.255C37.3015 14.2323 37.3091 14.2172 37.3091 14.1945V6.59084C38.7772 8.34437 40.2454 10.1508 41.6984 12.0026L41.7135 15.1922ZM42.8336 14.4288L43.212 14.1492C43.3406 14.3155 43.4693 14.4742 43.5903 14.648C43.7114 14.8143 43.8477 14.973 43.9687 15.1469L43.212 14.9277L42.4552 14.716L42.8336 14.4288ZM35.8107 13.2497L35.0312 13.1288L35.4171 12.8038L35.8107 12.4863L36.1966 12.9398L36.5826 13.3933L35.8107 13.2497Z" fill="#1D1D26"/>
<path d="M15.181 18.2458H14.2577V16.976H13.0469V20.5662H14.2577V19.2964H15.181V20.5662H16.3918V16.976H15.181V18.2458Z" fill="#1D1D26"/>
<path d="M18.14 19.2511H19.6612V18.2912H18.14V17.9284H19.7974V16.9684H16.9292V20.5587H19.8277V19.5987H18.14V19.2511Z" fill="#1D1D26"/>
<path d="M23.1726 19.2057C23.271 19.1377 23.3618 19.0621 23.4451 18.9639C23.5283 18.8656 23.5889 18.7598 23.6343 18.6389C23.6797 18.5028 23.6948 18.3592 23.6948 18.2232C23.7024 18.004 23.6645 17.7848 23.5737 17.5807C23.4905 17.422 23.377 17.2935 23.2256 17.2028C23.0591 17.1045 22.8775 17.0365 22.6883 17.0063C22.4613 16.9685 22.2342 16.9458 22.0072 16.9458H20.2969V20.536H21.485V19.4476H21.7499L22.5445 20.536H23.8991L22.9532 19.2511L23.1726 19.2057ZM21.5077 17.9133H21.9996C22.0602 17.9057 22.1283 17.9057 22.1964 17.9133C22.2418 17.9284 22.2872 17.9435 22.3326 17.9662C22.3704 17.9889 22.3931 18.0266 22.4083 18.0644C22.431 18.1098 22.4386 18.1551 22.4386 18.208C22.4386 18.2534 22.431 18.3063 22.4083 18.3516C22.3931 18.3894 22.3629 18.4272 22.3326 18.4499C22.2948 18.4801 22.2418 18.4953 22.1964 18.5104H22.0072H21.4926L21.5077 17.9133Z" fill="#1D1D26"/>
<path d="M27.7587 17.7621C27.6755 17.626 27.5771 17.4975 27.456 17.3917C27.3425 17.2783 27.2063 17.1876 27.0625 17.1121C26.9112 17.0365 26.7447 16.9836 26.5782 16.9458C26.3965 16.908 26.2074 16.8853 26.0257 16.8853C25.7533 16.8853 25.4733 16.9231 25.216 17.0138C24.9814 17.0894 24.7619 17.2179 24.5727 17.3842C24.3987 17.5504 24.2549 17.7545 24.1641 17.9737C24.0657 18.2231 24.0203 18.4877 24.0203 18.7598C24.0203 18.9412 24.043 19.1301 24.0808 19.304C24.1186 19.4627 24.1868 19.6214 24.27 19.765C24.3532 19.9011 24.4516 20.022 24.5651 20.1354C24.6862 20.2488 24.8224 20.3395 24.9662 20.4151C25.1176 20.4906 25.2765 20.5435 25.443 20.5813C25.6246 20.6191 25.8138 20.6418 26.003 20.6418C26.2755 20.6494 26.5479 20.604 26.8052 20.5133C27.0474 20.4377 27.2668 20.3092 27.4485 20.143C27.6225 19.9767 27.7663 19.7726 27.8571 19.5534C27.9555 19.304 28.0085 19.0394 28.0085 18.7673C28.0085 18.5859 27.9858 18.4045 27.9479 18.2231C27.9025 18.0644 27.842 17.9057 27.7587 17.7621ZM26.7447 18.7749C26.7522 18.8732 26.7522 18.9714 26.7447 19.0621C26.7295 19.1453 26.7068 19.2208 26.6766 19.2964C26.6463 19.3644 26.6084 19.4249 26.563 19.4778C26.5252 19.5307 26.4722 19.5685 26.4117 19.5988C26.3587 19.629 26.2982 19.6592 26.2376 19.6743C26.1771 19.6819 26.1165 19.6819 26.0484 19.6743H25.8517C25.7911 19.6517 25.7306 19.629 25.6776 19.5988C25.6246 19.5685 25.5717 19.5232 25.5263 19.4778C25.4808 19.4249 25.443 19.3644 25.4203 19.2964C25.3825 19.2208 25.3598 19.1453 25.3446 19.0621C25.3371 18.9639 25.3371 18.8656 25.3446 18.7749C25.3371 18.6766 25.3371 18.5784 25.3446 18.4877C25.3598 18.4045 25.39 18.329 25.4203 18.2534C25.4506 18.1929 25.4884 18.1324 25.5263 18.072C25.5717 18.0266 25.6171 17.9813 25.6776 17.951C25.7911 17.8906 25.9122 17.8528 26.0409 17.8528C26.1014 17.8452 26.1619 17.8452 26.2301 17.8528C26.2906 17.8679 26.3511 17.8906 26.4041 17.9208C26.4571 17.951 26.5101 17.9964 26.5555 18.0417C26.6009 18.0946 26.6387 18.1551 26.669 18.2231C26.6993 18.2987 26.722 18.3743 26.7371 18.4574C26.7447 18.5557 26.7447 18.654 26.7371 18.7447V18.7749H26.7447Z" fill="#1D1D26"/>
<path d="M29.6354 19.2511H31.1565V18.2912H29.6354V17.9284H31.2928V16.9684H28.4246V20.5587H31.323V19.5987H29.6354V19.2511Z" fill="#1D1D26"/>
<path d="M34.7134 18.7144C34.6074 18.6162 34.4864 18.533 34.3501 18.4726C34.1761 18.397 33.9869 18.3441 33.7977 18.3138L33.2301 18.208C33.1771 18.2005 33.1317 18.1853 33.0788 18.1702L32.9728 18.1098C32.9501 18.0946 32.9274 18.0644 32.9123 18.0417C32.9047 18.0115 32.9047 17.9888 32.9123 17.9586C32.9123 17.9359 32.9123 17.9132 32.9123 17.8906C32.9198 17.8679 32.935 17.8528 32.9501 17.8301L33.0031 17.7923C33.0258 17.7772 33.056 17.7696 33.0788 17.7621C33.109 17.7545 33.1393 17.7545 33.1696 17.7621H33.2755C33.3285 17.7545 33.3815 17.7545 33.4344 17.7621C33.4798 17.7696 33.5253 17.7923 33.5631 17.8225C33.6009 17.8452 33.6312 17.883 33.6615 17.9208C33.6917 17.9586 33.7069 18.0039 33.722 18.0493H34.948C34.9177 17.883 34.8648 17.7167 34.7891 17.5656C34.7058 17.4219 34.5999 17.301 34.4712 17.1952C34.3274 17.0894 34.1609 17.0138 33.9869 16.9609C33.775 16.9004 33.5631 16.8777 33.3436 16.8777C33.1923 16.8777 33.0409 16.8929 32.8896 16.9155C32.7533 16.9382 32.6247 16.976 32.496 17.0214C32.3825 17.0667 32.2766 17.1196 32.1706 17.1876C32.0798 17.2557 32.0041 17.3312 31.936 17.4144C31.8755 17.4975 31.8225 17.5958 31.7847 17.694C31.7544 17.7999 31.7317 17.9057 31.7317 18.0191C31.7317 18.1627 31.7544 18.3063 31.8074 18.4423C31.8603 18.5708 31.936 18.6842 32.042 18.7749C32.1479 18.8731 32.269 18.9563 32.4052 19.0168C32.5641 19.0848 32.7231 19.1377 32.8971 19.1679L33.4571 19.2737C33.5253 19.2813 33.5934 19.304 33.6539 19.3266L33.7901 19.3871C33.8204 19.4098 33.8431 19.4325 33.8582 19.4627C33.8658 19.4929 33.8658 19.5307 33.8582 19.561C33.8658 19.5836 33.8658 19.6063 33.8582 19.629C33.8582 19.6517 33.8582 19.6668 33.8582 19.6894C33.8431 19.7121 33.8204 19.7272 33.7977 19.7424L33.7144 19.7726H33.6085H33.4874C33.4193 19.7801 33.3512 19.7801 33.2906 19.7726C33.2377 19.7575 33.1847 19.7348 33.1393 19.7046C33.0939 19.6743 33.0561 19.6365 33.0333 19.5987C33.0031 19.5534 32.9804 19.5005 32.9728 19.4476H31.7544C31.7695 19.6139 31.8225 19.7726 31.9057 19.9238C31.989 20.0749 32.1025 20.2034 32.2312 20.3017C32.3901 20.415 32.5641 20.5057 32.7533 20.5587C32.9879 20.6267 33.2377 20.6569 33.4798 20.6494C33.6312 20.6645 33.7901 20.6645 33.9415 20.6494C34.0777 20.6267 34.2139 20.5889 34.3426 20.5435C34.4561 20.4982 34.5696 20.4453 34.668 20.3697C34.7588 20.3017 34.842 20.2185 34.9102 20.1278C34.9783 20.0371 35.0237 19.9389 35.0615 19.8331C35.0994 19.7197 35.1145 19.6063 35.1145 19.4854C35.1145 19.3493 35.0918 19.2057 35.0388 19.0772C34.9556 18.9185 34.8496 18.7976 34.7134 18.7144Z" fill="#1D1D26"/>
<path d="M9.4295 19.697L9.29328 19.4401H9.08139L3.84448 21.5262L9.25544 19.9389L9.4295 19.697Z" fill="#1D1D26"/>
<path d="M9.80037 20.7628L7.61328 23L9.97443 21.2692L10.1485 21.0273L10.0123 20.7703H9.80037V20.7628Z" fill="#1D1D26"/>
<path d="M8.71808 18.4348L8.58186 18.1778H8.36996L0 18.7371L8.54402 18.6766L8.71808 18.4348Z" fill="#1D1D26"/>
<path d="M38.7849 19.4401L38.6487 19.697L38.8227 19.9389L44.2337 21.5262L38.9968 19.4401H38.7849Z" fill="#1D1D26"/>
<path d="M38.0583 20.7627L37.9297 21.0197L38.1037 21.2616L40.4573 22.9925L38.2702 20.7552H38.0583V20.7627Z" fill="#1D1D26"/>
<path d="M39.4888 18.1778L39.3525 18.4348L39.5266 18.6766L48.0706 18.7371L39.7007 18.1778H39.4888Z" fill="#1D1D26"/>
</svg>
