<svg width="139" height="23" viewBox="0 0 139 23" fill="none" xmlns="http://www.w3.org/2000/svg"><g clip-path="url(#clip0_1_30)"><path d="M43.727 9.77585H38.7264V3.59397H43.727V9.77585ZM44.0374 0.000854492H34.7415V17.1725H38.7264V13.2097H44.0374C46.0252 13.2097 47.636 11.6005 47.636 9.61485V3.59567C47.636 1.61 46.0252 0.000854492 44.0374 0.000854492Z" fill="#1D1D26"/><path d="M59.4007 13.5538H53.5618V3.64678H59.4007V13.5538ZM59.7614 0.000854492H53.2258C51.2389 0.000854492 49.6272 1.61 49.6272 3.59567V13.5785C49.6272 15.5633 51.2389 17.1725 53.2258 17.1725H59.7614C61.7492 17.1725 63.3601 15.5633 63.3601 13.5785V3.59567C63.3601 1.61 61.7492 0.000854492 59.7614 0.000854492Z" fill="#1D1D26"/><path d="M74.5279 9.77585H69.5273V3.59397H74.5279V9.77585ZM74.8383 0.000854492H65.5415V17.1725H69.5273V13.2097H74.8383C76.8252 13.2097 78.437 11.6005 78.437 9.61485V3.59567C78.437 1.61 76.8252 0.000854492 74.8383 0.000854492Z" fill="#1D1D26"/><path d="M90.0293 0.000854492H84.0259C82.039 0.000854492 80.4272 1.61 80.4272 3.59567V13.5785C80.4272 15.5633 82.039 17.1725 84.0259 17.1725H90.0293C92.0163 17.1725 93.6271 15.5633 93.6271 13.5785V10.7248H89.7181V13.5538H84.3619V3.64593H89.7181V6.43915H93.6271V3.59567C93.6271 1.61 92.0163 0.000854492 90.0293 0.000854492Z" fill="#1D1D26"/><path d="M105.45 13.5538H99.6118V3.64678H105.45V13.5538ZM105.811 0.000854492H99.2749C97.288 0.000854492 95.6763 1.61 95.6763 3.59567V13.5785C95.6763 15.5633 97.288 17.1725 99.2749 17.1725H105.811C107.798 17.1725 109.409 15.5633 109.409 13.5785V3.59567C109.409 1.61 107.798 0.000854492 105.811 0.000854492Z" fill="#1D1D26"/><path d="M138.499 3.46193V0.000854492H126.796V17.1725H138.499V13.7114H130.782V10.2512H136.367V6.81652H130.782V3.46193H138.499Z" fill="#1D1D26"/><path d="M115.576 3.64593H120.831V8.74511H115.576V3.64593ZM121.116 0.000854492H111.591V17.1725H115.576V12.1798H118.32L120.704 17.1725H124.689L122.185 12.0179C123.65 11.563 124.715 10.1984 124.715 8.58497V3.59567C124.715 1.61 123.104 0.000854492 121.116 0.000854492Z" fill="#1D1D26"/><path d="M8.59753 12.0239C6.69844 12.0239 5.15835 10.4854 5.15835 8.58837C5.15835 6.69044 6.69844 5.15285 8.59753 5.15285C10.4966 5.15285 12.0367 6.69044 12.0367 8.58837C12.0367 10.4854 10.4966 12.0239 8.59753 12.0239ZM0 0V22.902H6.30446V17.1767H17.1951V0L0 0Z" fill="#1D1D26"/><path d="M29.231 8.58835C29.231 10.4854 27.6918 12.0239 25.7927 12.0239C23.8936 12.0239 22.3535 10.4854 22.3535 8.58835C22.3535 6.69042 23.8936 5.15283 25.7927 5.15283C27.6918 5.15283 29.231 6.69042 29.231 8.58835Z" fill="#1D1D26"/></g><defs><clipPath id="clip0_1_30"><rect width="139" height="23" fill="white"/></clipPath></defs></svg>